<?xml version="1.0" encoding="UTF-8" standalone="no"?>
<!-- Created with Inkscape (http://www.inkscape.org/) -->

<svg
   xmlns:dc="http://purl.org/dc/elements/1.1/"
   xmlns:cc="http://creativecommons.org/ns#"
   xmlns:rdf="http://www.w3.org/1999/02/22-rdf-syntax-ns#"
   xmlns:svg="http://www.w3.org/2000/svg"
   xmlns="http://www.w3.org/2000/svg"
   xmlns:sodipodi="http://sodipodi.sourceforge.net/DTD/sodipodi-0.dtd"
   xmlns:inkscape="http://www.inkscape.org/namespaces/inkscape"
   version="1.1"
   id="svg1117"
   width="704"
   height="693"
   viewBox="0 0 704 693"
   sodipodi:docname="Vinland_Saga_logo.svg"
   inkscape:version="0.92.4 5da689c313, 2019-01-14">
  <metadata
     id="metadata1123">
    <rdf:RDF>
      <cc:Work
         rdf:about="">
        <dc:format>image/svg+xml</dc:format>
        <dc:type
           rdf:resource="http://purl.org/dc/dcmitype/StillImage" />
      </cc:Work>
    </rdf:RDF>
  </metadata>
  <defs
     id="defs1121" />
  <sodipodi:namedview
     pagecolor="#ffffff"
     bordercolor="#666666"
     borderopacity="1"
     objecttolerance="10"
     gridtolerance="10"
     guidetolerance="10"
     inkscape:pageopacity="0"
     inkscape:pageshadow="2"
     inkscape:window-width="1920"
     inkscape:window-height="1025"
     id="namedview1119"
     showgrid="false"
     inkscape:zoom="0.59235209"
     inkscape:cx="352"
     inkscape:cy="616.60962"
     inkscape:window-x="0"
     inkscape:window-y="32"
     inkscape:window-maximized="1"
     inkscape:current-layer="svg1117" />
  <path
     style="fill:#aa0000"
     d="m 212,624.61912 c -15.23487,-4.92725 -26.11122,-17.43094 -28.49564,-32.75923 -0.54449,-3.50028 -0.29326,-4.47317 1.61394,-6.25 2.53327,-2.36009 3.46746,-2.58367 4.41171,-1.05585 0.44863,0.7259 1.05279,0.71265 1.96336,-0.0431 0.72343,-0.60039 2.42214,-0.81382 3.77493,-0.4743 1.93574,0.48584 2.57536,0.17464 3.00312,-1.46111 0.42822,-1.6375 -0.0203,-2.20334 -2.11395,-2.66721 -1.46161,-0.32382 -3.44497,-0.80227 -4.40747,-1.06321 -1.09975,-0.29816 -1.75,0.0829 -1.75,1.02555 0,0.825 -0.9,1.75533 -2,2.06739 -1.1,0.31207 -2.9,0.82271 -4,1.13478 -1.72967,0.49069 -2,0.0898 -2,-2.96556 0,-3.48443 0.0687,-3.54205 5,-4.19622 5.55854,-0.73736 6.85824,-2.41457 1.72146,-2.22145 -1.8032,0.0678 -4.2782,-0.41175 -5.5,-1.06564 C 181.1557,571.51844 181,570.74083 181,561.52931 c 0,-5.44819 0.40316,-10.15497 0.89592,-10.45951 0.49276,-0.30454 2.18026,0.11707 3.75,0.93692 2.36081,1.233 3.02691,1.26071 3.85408,0.16034 1.48983,-1.9819 6.44675,-2.95067 8.09565,-1.58219 2.23057,1.8512 1.64631,2.92061 -1.59565,2.92061 -2,0 -3,0.5 -3,1.5 0,0.83333 -0.88889,1.5 -2,1.5 -1.16032,0 -2,0.66667 -2,1.5879 0,1.30793 0.74931,1.46821 4.25,0.90903 2.3375,-0.37337 4.70899,-1.20042 5.26997,-1.83789 1.88213,-2.13874 5.42786,-3.65904 8.53385,-3.65904 2.62588,0 2.9872,-0.29541 2.44618,-2 -0.54824,-1.72734 -0.18252,-1.99791 2.68261,-1.98469 1.82457,0.008 3.81667,0.34592 4.42691,0.75 1.23434,0.81735 2.4336,17.49431 1.66833,23.19986 l -0.48919,3.64716 -5.76674,-0.41713 c -6.73868,-0.48743 -8.68888,1.03656 -5.07314,3.96441 1.32024,1.06906 2.02623,2.46312 1.69049,3.33805 -0.8092,2.10875 -0.009,1.88591 3.87997,-1.08013 1.86218,-1.42036 4.16252,-2.43286 5.11187,-2.25 1.62859,0.31369 1.62724,0.4313 -0.024,2.08247 -0.96251,0.9625 -1.27201,1.75 -0.68778,1.75 0.58423,0 2.07887,1.56943 3.32143,3.48762 2.48361,3.83406 6.49404,4.74172 8.78013,1.98715 1.13,-1.36156 1.46505,-1.34493 3.12244,0.15499 1.71744,1.55426 1.85662,1.55615 1.85662,0.0252 0,-0.91025 0.675,-1.65499 1.5,-1.65499 2.23319,0 1.81476,-3.10493 -0.5,-3.71025 -4.42094,-1.1561 -0.74797,-3.24879 5.75,-3.2761 1.7875,-0.008 3.25,-0.43333 3.25,-0.94626 0,-1.46574 -3.55816,-2.22411 -7.70629,-1.64248 -2.63843,0.36994 -3.0324,0.29638 -1.29371,-0.24157 3.02823,-0.93694 3.41893,-3.80819 0.46356,-3.40666 -1.73596,0.23585 -2.06014,-0.31747 -2.19702,-3.75 -0.11643,-2.92102 0.23679,-4.02665 1.28649,-4.02665 0.79586,0 1.44702,-0.675 1.44702,-1.5 0,-0.83333 0.88889,-1.5 2,-1.5 1.1,0 2,-0.45 2,-1 0,-1.34372 -4.32251,-1.27749 -5.68713,0.0871 -1.30818,1.30818 -1.63489,0.7807 -3.27465,-5.28707 -0.69856,-2.58497 -2.11794,-5.46721 -3.15417,-6.40499 C 226.84782,550.96278 226,549.35113 226,548.31911 c 0,-1.03202 -0.7875,-2.15966 -1.75,-2.50587 -0.9625,-0.3462 -4.00979,-2.69458 -6.77177,-5.21861 -2.76197,-2.52403 -9.02839,-8.18915 -13.92538,-12.58915 C 193.06105,518.57848 186,509.5166 186,505.4788 c 0,-1.54366 -0.46212,-2.96069 -1.02693,-3.14896 -4.01168,-1.33723 -5.72688,-42.12691 -2.34473,-55.76047 3.73325,-15.04883 11.18104,-23.18974 25.8586,-28.26512 10.75572,-3.71924 30.62915,-1.73299 40.01306,3.99911 14.26348,8.71276 18.5,18.94713 18.5,44.69135 0,11.99111 -0.20402,13.65599 -1.75,14.28073 -1.62795,0.65787 -8.77,0.65727 -27.25,-0.002 l -7.5,-0.26768 -0.0158,-12 c -0.0132,-9.99822 -0.32429,-12.45874 -1.86501,-14.75 -2.37216,-3.52773 -5.82565,-3.57426 -8.54659,-0.11514 -1.79516,2.28217 -2.07258,4.0276 -2.07258,13.03984 0,12.53035 1.32135,15.76898 9.61966,23.57777 3.06707,2.88614 5.94715,6.19674 6.40019,7.35689 0.4929,1.26223 2.07183,2.35898 3.93158,2.73093 2.16357,0.43271 6.06605,3.58985 12.84365,10.39064 10.95439,10.99185 14.0438,16.28097 17.18026,29.41283 2.05867,8.61932 1.71967,10.11226 -2.07109,9.12095 -1.0309,-0.26959 -2.65598,-0.19022 -3.61128,0.17636 -1.48582,0.57017 -1.52412,0.80109 -0.26494,1.59741 0.80958,0.51199 2.68291,0.93779 4.16295,0.94621 1.48004,0.008 2.9691,0.46531 3.30902,1.01531 0.33992,0.55 -0.0835,1 -0.94098,1 -0.85746,0 -1.55902,0.4024 -1.55902,0.89421 0,0.49182 -1.0125,0.85246 -2.25,0.80142 -1.2375,-0.051 -3.375,0.21741 -4.75,0.59656 -1.375,0.37914 -1.9375,0.431 -1.25,0.11525 1.71575,-0.78802 1.56778,-2.07152 -0.32244,-2.79687 -2.00352,-0.76882 -5.42756,1.02995 -5.42756,2.85129 0,0.76532 0.7875,1.62014 1.75,1.89961 0.9625,0.27947 0.26929,0.42786 -1.54046,0.32977 -1.97287,-0.10694 -3.6529,0.40811 -4.19562,1.28624 -0.49785,0.80553 -1.04214,1.25263 -1.20955,0.99356 -0.1674,-0.25907 -0.80095,-1.37104 -1.40788,-2.47104 -0.86795,-1.57308 -2.33037,-2.06466 -6.85097,-2.30292 -4.25141,-0.22406 -5.63915,0.022 -5.33133,0.94548 0.52588,1.57764 5.58584,2.99001 6.34005,1.76968 0.99845,-1.61584 2.44574,-0.97216 2.44574,1.08748 0,1.29167 0.70833,2.04427 2,2.125 1.1,0.0688 2.45,0.2375 3,0.375 0.55,0.1375 1.7875,0.33477 2.75,0.43839 1.40725,0.15149 1.30932,0.36552 -0.5,1.09277 -1.2375,0.49742 -2.25,1.36889 -2.25,1.93662 0,0.58451 -2.38553,1.03222 -5.5,1.03222 -3.025,0 -5.5,0.45 -5.5,1 0,0.55 0.45,1 1,1 0.55,0 1,0.675 1,1.5 0,0.825 0.3872,1.5 0.86045,1.5 0.47325,0 2.55101,1.14724 4.61724,2.54943 3.65303,2.47901 5.02231,2.51097 5.02231,0.11724 0,-0.64167 1.0125,-1.31047 2.25,-1.48622 1.2375,-0.17575 2.25,0.20818 2.25,0.85318 0,0.82647 2.28823,1.06845 7.75,0.81955 l 7.75,-0.35318 0.30326,7.5 c 0.34784,8.60248 -2.01356,19.53149 -5.41974,25.08358 -3.07176,5.00701 -10.94222,11.7598 -16.95668,14.5487 -9.989,4.63188 -25.43286,5.7136 -35.42684,2.48136 z m -20.2177,-28.95914 c 0.28658,-0.86063 -0.19425,-1.221 -1.33427,-1 -0.98026,0.19002 -1.98391,0.95098 -2.23033,1.691 -0.28658,0.86063 0.19425,1.221 1.33427,1 0.98026,-0.19002 1.98391,-0.95098 2.23033,-1.691 z M 203,585.5645 c 0,-0.51754 -0.45,-1.2191 -1,-1.55902 -0.55,-0.33992 -1,0.0835 -1,0.94098 0,0.85746 0.45,1.55902 1,1.55902 0.55,0 1,-0.42344 1,-0.94098 z m 13.44931,-13.33053 C 215.79387,570.52592 212,568.19215 212,569.49701 c 0,0.55466 -0.6199,1.00847 -1.37756,1.00847 -0.75765,0 -1.93775,0.675 -2.62244,1.5 -1.07884,1.29993 -0.56583,1.5 3.84617,1.5 3.70794,0 4.9585,-0.34544 4.60314,-1.27151 z M 245.8,554.30548 c 2.15094,-2.15094 1.2704,-3.07311 -2.37027,-2.48231 -1.96365,0.31866 -4.72308,0.14108 -6.13208,-0.39462 -1.409,-0.5357 -3.40238,-0.70722 -4.42973,-0.38115 -2.11782,0.67217 -2.50252,3.03535 -0.61792,3.7958 2.52888,1.02042 12.3829,0.62938 13.55,-0.53772 z m 8.2,-14.8 c 0,-0.55 -0.675,-1 -1.5,-1 -0.825,0 -1.5,0.45 -1.5,1 0,0.55 0.675,1 1.5,1 0.825,0 1.5,-0.45 1.5,-1 z m -9.93426,-4.03518 C 245.12958,534.90095 246,534.00122 246,533.4709 c 0,-1.22252 -7.26667,-0.79025 -8.18402,0.48683 -1.73429,2.4144 2.60319,3.46415 6.24976,1.51257 z M 225,530.44646 c 0,-2.19655 1.7985,-2.62965 2.5701,-0.6189 0.33837,0.88179 2.68365,1.38203 7.04235,1.50213 5.74974,0.15842 6.49146,-0.0305 6.1725,-1.57208 -0.26792,-1.29487 -1.19151,-1.68712 -3.53904,-1.50303 -2.31619,0.18163 -3.46627,-0.29233 -4.24639,-1.75 -0.81808,-1.5286 -2.094,-1.9991 -5.4212,-1.9991 -4.14378,0 -4.37428,0.15501 -4.83264,3.25 -0.26473,1.7875 -0.26865,3.80992 -0.009,4.49426 C 223.41,534.02168 225,532.75472 225,530.44646 Z m -5,-0.44098 c 0,-0.93333 -0.94444,-1.5 -2.5,-1.5 -2.42787,0 -3.19294,0.97373 -1.83333,2.33333 1.25797,1.25798 4.33333,0.66657 4.33333,-0.83333 z m 29,-2.05902 c 0,-0.79254 -0.91583,-1.44098 -2.03518,-1.44098 -1.73468,0 -1.87493,0.29945 -0.94983,2.02801 1.15781,2.1634 2.98501,1.80406 2.98501,-0.58703 z m -6.55279,-5.52639 c -0.32197,-0.52097 -1.01165,-0.68378 -1.53262,-0.3618 -0.52097,0.32197 -0.68378,1.01165 -0.3618,1.53262 0.32197,0.52097 1.01165,0.68378 1.53262,0.3618 0.52097,-0.32197 0.68378,-1.01165 0.3618,-1.53262 z M 228,493.61247 c 0,-2.111 -2.59033,-3.57887 -3.55659,-2.01543 -0.94048,1.52173 0.29622,3.90844 2.02521,3.90844 0.84226,0 1.53138,-0.85186 1.53138,-1.89301 z m 166.45361,129.89836 c -3.32552,-1.70075 -7.77479,-4.62994 -9.88726,-6.50931 -3.47285,-3.08964 -3.78419,-3.7662 -3.24949,-7.06117 0.51794,-3.19174 0.36251,-3.58429 -1.25205,-3.16207 -1.01388,0.26514 -2.24112,0.19972 -2.72721,-0.14537 -1.4784,-1.04956 -3.98329,-5.47323 -4.66246,-8.23397 -0.64042,-2.60326 -0.63589,-2.60532 3.59181,-1.63239 2.32818,0.53579 5.00373,1.36455 5.94567,1.84168 0.94195,0.47713 4.99195,1.36629 9,1.97591 4.00806,0.60961 7.64992,1.45134 8.09301,1.8705 1.01851,0.96348 -4.83773,3.45805 -6.17617,2.63085 -0.5452,-0.33695 -1.30501,-0.10498 -1.68848,0.51548 -1.10615,1.78979 1.64024,2.82463 4.29103,1.61685 1.79441,-0.81759 2.90829,-0.79356 4.32851,0.0934 2.47236,1.54401 4.64093,1.52111 5.2772,-0.0557 0.40351,-1 0.52017,-1 0.58333,0 0.18372,2.90883 9.38187,-0.0915 14.57895,-4.75549 1.1,-0.98717 2.86271,-1.95227 3.91713,-2.14468 1.05443,-0.19241 2.10443,-0.91233 2.33334,-1.59983 0.43808,-1.31572 -3.22988,-1.75513 -11.75047,-1.40766 -2.475,0.10093 -6.075,0.24249 -8,0.31457 -6.32854,0.23698 -23.46737,-2.33178 -25.07874,-3.75879 -0.86831,-0.76901 -2.06831,-1.39816 -2.66667,-1.39816 -0.59836,0 -1.28869,-0.5625 -1.53408,-1.25 -0.30571,-0.8565 -1.2751,-0.48799 -3.07939,1.17061 -1.44828,1.33134 -2.84286,2.21098 -3.09908,1.95477 -0.25621,-0.25622 -0.71812,-3.37049 -1.02646,-6.92061 -0.30834,-3.55012 -0.93067,-9.08284 -1.38296,-12.29493 l -0.82233,-5.84016 3.36349,-1.60394 c 3.86653,-1.84382 3.8482,-3.80417 -0.033,-3.52748 -2.8513,0.20327 -3.58355,-1.11251 -1.14079,-2.04989 1.94864,-0.74776 1.91713,-3.04729 -0.0643,-4.69172 -1.01978,-0.84635 -1.35287,-2.14056 -0.95694,-3.7181 0.33404,-1.33092 0.2002,-2.93931 -0.29744,-3.5742 -0.88965,-1.13504 -0.92521,-43.23042 -0.0399,-47.17193 0.24926,-1.10967 0.79792,-2.57535 1.21924,-3.25706 0.4597,-0.74381 0.14084,-1.4794 -0.79734,-1.83941 C 368.27364,497.39651 368,495.32096 368,486.03335 c 0,-9.74396 0.269,-11.60012 2,-13.80074 2.39258,-3.04167 2.51467,-4.31566 0.48811,-5.09332 -1.20409,-0.46205 -1.39606,-1.75624 -0.94295,-6.35699 1.42196,-14.43798 5.87175,-24.50853 14.44106,-32.68227 8.01116,-7.64135 15.02996,-10.68884 26.13255,-11.34648 13.45758,-0.79713 21.84073,1.68146 32.13123,9.50005 6.15129,4.67367 7.32772,7.25188 3.30902,7.25188 -2.85986,0 -4.39496,1.86533 -2.49927,3.03692 0.7594,0.46935 2.10974,0.25734 3.1928,-0.50126 2.96406,-2.07611 5.31384,-0.74548 7.587,4.29631 3.58765,7.95729 5.01984,15.0952 6.26237,31.21093 1.37634,17.85115 0.88029,22.70289 -2.39572,23.43199 -1.81005,0.40284 -30.79039,0.12485 -35.57864,-0.34128 -1.14324,-0.1113 -1.15113,-0.40028 -0.0472,-1.73039 1.11744,-1.34643 1.05825,-1.74617 -0.37756,-2.54969 C 420.20492,489.52078 420,487.393 420,472.6783 c 0,-13.52151 -0.29838,-17.15381 -1.5567,-18.95031 -2.16824,-3.0956 -5.97207,-2.87105 -8.17025,0.48231 -1.59635,2.43527 -1.79224,5.99802 -1.96562,35.75 l -0.19258,33.04518 -2.80742,1.49396 -2.80743,1.49396 2.75,0.32246 2.75,0.32246 v 9.82659 c 0,7.87731 -0.30205,9.9425 -1.52268,10.4109 -1.28302,0.49234 -1.1938,0.91319 0.56691,2.6739 2.66045,2.66045 1.22233,4.73411 -3.3336,4.80682 -3.3243,0.053 -8.96498,0.5935 -16.67578,1.59773 -4.33544,0.56463 -6.97214,1.94727 -5.85116,3.06824 0.30269,0.30269 4.20171,0.69805 8.66448,0.87857 4.81804,0.1949 8.76409,0.86765 9.71418,1.65615 1.28393,1.06557 1.99151,1.08346 3.5814,0.0906 2.38713,-1.49079 6.39988,-0.5476 5.07044,1.1918 -1.35771,1.77638 0.60293,23.73446 2.35867,26.4159 0.93782,1.43227 2.4744,2.25 4.22795,2.25 1.60816,0 3.57212,-0.93648 4.71864,-2.25 1.77872,-2.03781 1.9979,-4.09926 2.32415,-21.85934 l 0.36023,-19.60933 -3.00629,-2.14067 c -1.65345,-1.1774 -3.45304,-2.1407 -3.99908,-2.1407 -0.98891,0 -2.18847,-23.77491 -1.3749,-27.25 0.37539,-1.60343 2.31658,-1.75 23.17644,-1.75 26.09448,0 23.95974,-0.90781 23.98635,10.20031 0.01,4.10132 -0.41794,5.94184 -1.52492,6.56134 -1.38308,0.77401 -1.38371,1.15802 -0.006,3.79969 1.63607,3.13743 2.05174,14.57163 0.88344,24.3011 -0.5753,4.79105 -0.97396,5.50122 -3.74131,6.66487 -2.22393,0.93514 -3.46184,0.99998 -4.38977,0.22994 -0.92772,-0.76987 -1.63077,-0.7341 -2.49164,0.12677 -1.89245,1.89245 1.09675,3.27072 6.03402,2.78218 4.01553,-0.39732 4.25366,-0.27558 4.31634,2.20664 0.0365,1.44494 0.20643,5.44714 0.37763,8.89377 0.17561,3.53525 -0.13361,6.54158 -0.70946,6.89747 -0.56141,0.34697 -3.31884,0.677 -6.12763,0.73339 -5.10571,0.10251 -5.10685,0.10328 -4.95943,3.35253 0.0992,2.18656 -0.30981,3.25 -1.25,3.25 -0.7686,0 -1.39745,0.62252 -1.39745,1.38337 0,1.54073 -2.98106,2.58229 -7.45,2.60298 -2.34526,0.0109 -2.69613,-0.24022 -1.71161,-1.22474 0.68112,-0.68112 2.00126,-1.24362 2.93365,-1.25 0.93238,-0.006 1.8481,-0.79911 2.03493,-1.76161 0.23548,-1.21319 -0.29632,-1.75 -1.73365,-1.75 -1.14049,0 -2.07349,0.39375 -2.07349,0.875 0,0.48125 -1.38039,1.15108 -3.06753,1.48851 -2.64462,0.52892 -3.02376,0.99423 -2.75,3.375 0.25093,2.1823 1.31379,3.23745 5.06753,5.03078 5.32048,2.54183 6.33481,5.21154 2,5.26398 l -2.75,0.0333 2.37645,1.97941 c 4.29923,3.58096 7.13107,3.62925 10.21814,0.17422 4.12631,-4.61815 8.44784,-4.69352 12.62422,-0.22017 3.15884,3.38345 3.25955,3.41675 3.02442,1 -0.21007,-2.15918 0.20811,-2.54334 3.06747,-2.81789 4.45963,-0.4282 3.58776,-2.5449 -1.3107,-3.18211 -6.73606,-0.87626 -5.36892,-3.64287 2,-4.04728 6.28302,-0.34482 7.5,-0.0126 7.5,2.04728 0,1.42029 0.66667,2 2.3,2 1.265,0 2.82093,0.52093 3.45762,1.15762 0.83384,0.83384 1.52185,0.85533 2.4599,0.0768 0.71625,-0.59444 4.12039,-1.39963 7.56476,-1.78932 3.44436,-0.38968 6.50396,-1.09925 6.79911,-1.57682 0.29516,-0.47756 1.23587,-0.8683 2.09047,-0.8683 1.30807,0 1.46348,1.06764 0.98257,6.75 -0.93285,11.02238 -1.12026,11.64323 -3.7354,12.37435 -1.33047,0.37196 -15.79497,0.72115 -32.14335,0.77597 l -29.72432,0.0997 -1.52568,-2.95034 C 433.68656,617.93245 433,615.25901 433,613.61416 c 0,-4.28638 -1.73594,-4.76003 -3.75933,-1.02573 -2.29688,4.23903 -7.17245,9.91705 -8.51552,9.91705 -0.58722,0 -1.85809,0.71532 -2.82417,1.58961 -1.17101,1.05975 -4.36384,1.74267 -9.57874,2.04881 -7.23835,0.42493 -8.27357,0.22838 -13.86863,-2.63307 z M 425.81184,593.244 c 0.24634,-1.27917 -0.32953,-1.73852 -2.1795,-1.73852 -2.97417,0 -4.46788,1.85077 -2.51046,3.11055 2.01337,1.29579 4.30531,0.62529 4.68996,-1.37203 z m 10.63831,-4.46921 c 0.80392,-2.09497 -2.27475,-4.19909 -6.20015,-4.23751 -3.60013,-0.0352 -3.98475,0.91719 -1.7486,4.32999 1.14625,1.7494 2.19478,2.18965 4.43277,1.86118 1.61227,-0.23663 3.19445,-1.11578 3.51598,-1.95366 z m -7.39733,-8.76931 c -0.0784,-1.48429 -2.31562,-1.2116 -2.83465,0.3455 -0.28038,0.84112 0.17677,1.21599 1.21948,1 0.9174,-0.19002 1.64422,-0.7955 1.61517,-1.3455 z m 9.94718,0.5 c 0,-0.55 -0.47656,-1 -1.05902,-1 -0.58246,0 -0.7809,0.45 -0.44098,1 0.33992,0.55 0.81648,1 1.05902,1 0.24254,0 0.44098,-0.45 0.44098,-1 z m -3,-3.94098 c 0,-0.51754 -0.45,-1.2191 -1,-1.55902 -0.55,-0.33992 -1,0.0835 -1,0.94098 0,0.85746 0.45,1.55902 1,1.55902 0.55,0 1,-0.42344 1,-0.94098 z m -60,-4.05902 c 0,-0.55 -0.45,-1 -1,-1 -0.55,0 -1,0.45 -1,1 0,0.55 0.45,1 1,1 0.55,0 1,-0.45 1,-1 z m 20,-2.97432 c 0,-0.53588 -1.4625,-1.73341 -3.25,-2.6612 -1.7875,-0.92778 -2.6875,-1.87684 -2,-2.10901 0.6875,-0.23218 1.25,-1.34352 1.25,-2.46965 0,-1.79122 -0.44926,-1.9746 -3.58923,-1.46505 -1.97408,0.32035 -4.29246,1.16608 -5.15197,1.87941 -0.85951,0.71332 -2.92305,1.7476 -4.58566,2.29839 -4.41834,1.4637 -4.60296,3.44735 -0.2952,3.17177 1.93026,-0.12348 3.83488,-0.54983 4.23248,-0.94743 0.3976,-0.3976 1.62291,-0.72291 2.72291,-0.72291 1.1,0 1.6595,0.3375 1.24332,0.75 -0.41618,0.4125 0.97132,1.27792 3.08333,1.92315 4.87824,1.49033 6.34002,1.57161 6.34002,0.35253 z m 52,-0.52568 c 0,-1.08333 -1.11111,-1.5 -4,-1.5 -2.88889,0 -4,0.41667 -4,1.5 0,1.08333 1.11111,1.5 4,1.5 2.88889,0 4,-0.41667 4,-1.5 z m -17.22917,-1.3125 c 0.21771,-0.65313 -0.31666,-1.1875 -1.1875,-1.1875 -0.87083,0 -1.58333,0.7125 -1.58333,1.58333 0,1.76593 2.15276,1.45839 2.77083,-0.39583 z m 22.52006,-7.81418 c 2.16943,-0.7607 1.65529,-2.98901 -0.59766,-2.59027 -0.8796,0.15568 -3.16152,-0.3697 -5.07092,-1.1675 -3.06368,-1.28008 -3.53964,-1.27336 -4.05022,0.0572 -0.81933,2.13514 0.11839,3.22096 2.291,2.65281 1.14259,-0.29879 2.10757,0.15562 2.49953,1.17704 0.35114,0.91505 1.2007,1.40159 1.88791,1.08121 0.68721,-0.32038 2.05537,-0.8651 3.04036,-1.21048 z M 427.5,558.50548 c -0.33992,-0.55 -1.04148,-1 -1.55902,-1 -0.51754,0 -0.94098,0.45 -0.94098,1 0,0.55 0.70156,1 1.55902,1 0.85746,0 1.2809,-0.45 0.94098,-1 z m 10.5,-2.5 c 0,-0.825 -0.45,-1.5 -1,-1.5 -0.55,0 -1,0.675 -1,1.5 0,0.825 0.45,1.5 1,1.5 0.55,0 1,-0.675 1,-1.5 z m -6.65066,-0.96797 c 0.77263,-2.01346 -0.58144,-2.63561 -4.17294,-1.91731 -2.03776,0.40755 -2.85449,1.0606 -2.49572,1.99554 0.70904,1.84772 5.95321,1.7862 6.66866,-0.0782 z M 378,554.0645 c 0,-1.05548 -1.91911,-1.49891 -2.48992,-0.57533 -0.34546,0.55897 0.0734,1.01631 0.9309,1.01631 0.85746,0 1.55902,-0.19844 1.55902,-0.44098 z m 78.89579,-1.12148 c 0.25898,-0.25898 0.0509,-0.88478 -0.46246,-1.39068 -1.08412,-1.0684 -8.43333,0.95826 -8.43333,2.32564 0,0.85366 7.94187,0.019 8.89579,-0.93496 z m -18.30289,-1.05021 c 2.68198,-0.67314 2.64219,-0.61112 1.80011,-2.80554 -0.81108,-2.11363 -3.65433,-2.00052 -6.44134,0.25626 -2.42396,1.9628 -1.87272,4.72937 0.74238,3.72586 0.82046,-0.31484 2.57495,-0.8443 3.89885,-1.17658 z M 375,550.00548 c 0,-0.825 -0.62686,-1.5 -1.39301,-1.5 -0.76616,0 -1.65203,0.675 -1.96862,1.5 -0.39152,1.02029 0.054,1.5 1.39301,1.5 1.08322,0 1.96862,-0.67464 1.96862,-1.5 z m 25,-1.5 c 0,-0.55 -0.675,-1 -1.5,-1 -0.825,0 -1.5,0.45 -1.5,1 0,0.55 0.675,1 1.5,1 0.825,0 1.5,-0.45 1.5,-1 z m 27.72917,-0.60417 c -0.33229,-0.33229 -1.1948,-0.36781 -1.91667,-0.0789 -0.79773,0.31922 -0.56078,0.55618 0.60417,0.60416 1.05416,0.0434 1.64479,-0.19293 1.3125,-0.52522 z m 3.63246,-0.89583 c 0.31658,-0.825 0.13972,-1.5 -0.39301,-1.5 -0.53274,0 -0.96862,0.675 -0.96862,1.5 0,0.825 0.17686,1.5 0.39301,1.5 0.21616,0 0.65203,-0.675 0.96862,-1.5 z m -48.03024,-2.92119 c 0.33527,-0.8737 -0.26111,-1.12374 -1.92269,-0.80611 -2.36747,0.45257 -2.99149,1.31118 -1.81093,2.49173 0.85225,0.85226 3.15945,-0.18938 3.73362,-1.68562 z M 377,544.5645 c 0,-0.51754 -0.45,-1.2191 -1,-1.55902 -0.55,-0.33992 -1,0.0835 -1,0.94098 0,0.85746 0.45,1.55902 1,1.55902 0.55,0 1,-0.42344 1,-0.94098 z m 23.97104,-5.75098 c 0.87848,-0.7773 -2.45731,-2.27733 -5.0986,-2.29273 -2.5632,-0.0149 -5.40729,2.11651 -4.30071,3.22309 0.5817,0.58169 8.58582,-0.21056 9.39931,-0.93036 z M 431,539.48073 c 0,-1.08855 -4.16314,-2.97525 -6.5651,-2.97525 -2.22865,0 -1.69001,1.96191 0.8151,2.96884 3.08091,1.23837 5.75,1.24135 5.75,0.006 z m -48.69016,-1.41105 c 2.57957,-1.9558 0.50122,-2.87392 -4.59654,-2.03054 -4.9961,0.82655 -5.94053,1.28966 -5.17059,2.53544 0.87009,1.40784 7.71075,1.05422 9.76713,-0.5049 z m 57.84451,-4.80985 c -1.14518,-1.14518 -3.44675,-0.0365 -2.63864,1.27107 0.30159,0.48798 1.23918,0.62213 2.08353,0.29812 1.00267,-0.38476 1.19522,-0.92908 0.55511,-1.56919 z M 380,533.00548 c 0,-0.825 -0.675,-1.5 -1.5,-1.5 -0.825,0 -1.5,0.675 -1.5,1.5 0,0.825 0.675,1.5 1.5,1.5 0.825,0 1.5,-0.675 1.5,-1.5 z m 47.5,-11.5 c 0.33992,-0.55 -0.0835,-1 -0.94098,-1 -0.85746,0 -1.55902,0.45 -1.55902,1 0,0.55 0.42344,1 0.94098,1 0.51754,0 1.2191,-0.45 1.55902,-1 z m 26,-30 c 0.33992,-0.55 -0.0835,-1 -0.94098,-1 -0.85746,0 -1.55902,0.45 -1.55902,1 0,0.55 0.42344,1 0.94098,1 0.51754,0 1.2191,-0.45 1.55902,-1 z m -52.04271,-5.9309 c 0.73955,-1.1966 -1.14162,-2.38223 -2.4736,-1.55902 -1.11836,0.69118 -0.38417,2.48992 1.01631,2.48992 0.48508,0 1.14086,-0.41891 1.45729,-0.9309 z M 429,484.50548 c 0,-0.55 -0.87344,-1 -1.94098,-1 -1.06754,0 -2.2191,0.45 -2.55902,1 -0.35052,0.56716 0.48962,1 1.94098,1 1.40746,0 2.55902,-0.45 2.55902,-1 z m 2,-5.5 c 0,-0.825 -0.7301,-1.5 -1.62244,-1.5 -1.3288,0 -1.39713,0.27149 -0.37756,1.5 0.68469,0.825 1.41479,1.5 1.62244,1.5 0.20766,0 0.37756,-0.675 0.37756,-1.5 z m -48.22917,-13.6875 c -0.6172,-1.85161 -2.46128,-2.06155 -3.11624,-0.35476 -0.41478,1.08089 0.022,1.54226 1.46013,1.54226 1.13951,0 1.87593,-0.52804 1.65611,-1.1875 z m 11.09805,-3.15451 c 0.61257,-0.7381 0.82158,-1.6342 0.46445,-1.99132 -0.75049,-0.7505 -3.33333,1.15236 -3.33333,2.45577 0,1.31658 1.60662,1.05648 2.86888,-0.46445 z M 388.5,460.50548 c -0.33992,-0.55 -1.04148,-1 -1.55902,-1 -0.51754,0 -0.94098,0.45 -0.94098,1 0,0.55 0.70156,1 1.55902,1 0.85746,0 1.2809,-0.45 0.94098,-1 z M 452,442.0645 c 0,-0.24254 -0.45,-0.7191 -1,-1.05902 -0.55,-0.33992 -1,-0.14148 -1,0.44098 0,0.58246 0.45,1.05902 1,1.05902 0.55,0 1,-0.19844 1,-0.44098 z m -60.27083,-9.16319 c -0.33229,-0.33229 -1.1948,-0.36781 -1.91667,-0.0789 -0.79773,0.31922 -0.56078,0.55618 0.60417,0.60416 1.05416,0.0434 1.64479,-0.19293 1.3125,-0.52522 z M 398,433.0645 c 0,-1.05548 -1.91911,-1.49891 -2.48992,-0.57533 -0.34546,0.55897 0.0734,1.01631 0.9309,1.01631 0.85746,0 1.55902,-0.19844 1.55902,-0.44098 z m 19,-1.05902 c 0.68469,-0.825 2.08979,-1.5 3.12244,-1.5 2.42317,0 2.43726,-1.62037 0.0196,-2.25261 -2.30622,-0.60309 -4.78871,0.72392 -6.16495,3.29544 -0.81005,1.5136 -0.72727,1.95717 0.36529,1.95717 0.77701,0 1.97294,-0.675 2.65763,-1.5 z m 11,-3.5 c 0,-0.55 -0.45,-1 -1,-1 -0.55,0 -1,0.45 -1,1 0,0.55 0.45,1 1,1 0.55,0 1,-0.45 1,-1 z m -157.20235,192.25 c -0.39734,-1.59628 0.92398,-18.59911 2.75877,-35.5 0.64582,-5.94886 0.98267,-6.75377 2.83818,-6.7818 1.96302,-0.0297 1.98705,-0.12165 0.3554,-1.36025 -2.91015,-2.20911 -2.0378,-3.60795 2.25,-3.60795 4.25398,0 4.99005,-0.93344 2.4188,-3.06739 -1.27834,-1.06093 -1.96738,-1.07111 -3.59738,-0.0532 -2.46154,1.53726 -3.56977,0.72718 -1.84625,-1.34954 0.6931,-0.83513 1.03456,-2.69869 0.7588,-4.14124 -0.27576,-1.44255 -0.12839,-6.95763 0.32748,-12.25574 1.6146,-18.76439 2.90887,-32.75648 3.94357,-42.63293 2.39058,-22.81871 6.2522,-61.42091 6.71524,-67.12795 0.43826,-5.40168 0.72134,-6.06933 2.38846,-5.63337 2.50296,0.65454 2.56505,-2.39006 0.0649,-3.18357 -1.64997,-0.52367 -1.73257,-1.16204 -0.85525,-6.60967 0.60445,-3.75327 1.58008,-6.35592 2.58399,-6.8932 0.88709,-0.47476 13.23317,-0.79323 27.43573,-0.70772 24.30963,0.14637 25.90602,0.26923 27.24236,2.09661 2.17974,2.98069 1.83597,6.55887 -0.63014,6.55887 -1.12731,0 -3.32562,0.65982 -4.88512,1.46627 -2.23459,1.15555 -4.06832,1.26562 -8.6533,0.51939 -3.19982,-0.52078 -6.06402,-0.58528 -6.36489,-0.14333 -0.30087,0.44196 -1.33453,1.09411 -2.29703,1.44923 -0.9625,0.35512 -1.75,1.33479 -1.75,2.17706 0,1.22933 1.38068,1.53138 7,1.53138 5.55556,0 7,0.30952 7,1.5 0,1.95519 4.84882,1.99462 7.60822,0.0619 3.25344,-2.2788 5.66222,1.3427 6.61018,9.93814 0.42461,3.85 1.21195,11.05 1.74965,16 0.5377,4.95 1.68721,15.075 2.55446,22.5 0.86725,7.425 2.21033,19.8 2.98462,27.5 0.77429,7.7 1.72,15.74403 2.10157,17.87562 0.54681,3.05474 0.34402,4.07134 -0.95747,4.79969 -2.26337,1.26664 -2.07571,3.48042 0.34877,4.11444 1.56791,0.41002 1.9952,1.35341 1.97776,4.36663 l -0.0222,3.84362 -1.92377,-2.5 c -1.46599,-1.90509 -2.20213,-2.2226 -3.0935,-1.33427 -0.8927,0.88966 -0.78707,1.71203 0.44601,3.47251 2.57555,3.67711 2.00781,4.1832 -3.91226,3.48742 C 345.90764,550.35962 342,551.14714 342,553.2417 c 0,1.20691 0.80468,1.39072 3.91258,0.89375 2.15192,-0.34411 4.58626,-0.88416 5.40966,-1.20013 0.95758,-0.36746 1.74241,0.19848 2.17785,1.57046 0.59426,1.87234 1.20942,2.07376 4.84035,1.58486 2.28776,-0.30805 3.59706,-0.30322 2.90956,0.0107 -1.80301,0.82332 -1.53633,3.14451 0.49167,4.27944 0.95792,0.53608 1.38745,1.3289 0.95452,1.76183 -0.43293,0.43293 -1.66058,0.24168 -2.7281,-0.42499 -3.44496,-2.15142 -9.27966,-1.18767 -8.29796,1.37061 0.29912,0.77948 1.2607,1.41724 2.13686,1.41724 1.20309,0 1.31074,0.28227 0.43981,1.1532 -1.39109,1.39109 0.1314,4.8468 2.13537,4.8468 0.7215,0 2.33875,0.89066 3.5939,1.97924 1.25514,1.08859 2.72212,1.70729 3.25994,1.3749 0.60772,-0.37559 0.72341,0.55416 0.30563,2.45628 -0.45232,2.05938 -0.15901,3.84391 0.89657,5.45494 0.86284,1.31686 1.3489,2.6142 1.08012,2.88298 -0.26878,0.26877 0.17338,4.25434 0.98258,8.85681 1.30687,7.43314 1.30252,8.55458 -0.0389,10.03687 -0.8306,0.91781 -1.22687,2.40707 -0.88059,3.30946 0.53038,1.38216 0.10081,1.5489 -2.72589,1.05808 -5.61598,-0.97513 -6.6547,-1.60617 -3.85549,-2.34229 3.00351,-0.78985 3.45834,-3.72858 0.5,-3.23062 -1.1,0.18516 -2.91577,1.18523 -4.03504,2.22237 -1.75457,1.62583 -2.53491,1.73231 -5.66198,0.77259 -4.62274,-1.41876 -7.04214,-0.53696 -6.62312,2.41392 0.34518,2.43078 3.32014,3.18149 3.32014,0.8378 0,-2.27004 2.26592,-2.38922 3.44755,-0.18133 0.6158,1.15064 1.69723,1.7878 2.50697,1.47708 0.7832,-0.30054 2.23884,-0.0725 3.23474,0.50683 1.65618,0.96337 1.61868,1.05587 -0.43926,1.08368 -1.2375,0.0167 -2.25,0.51996 -2.25,1.11831 0,0.73741 1.36921,0.83281 4.25,0.29613 2.3375,-0.43548 5.825,-0.81253 7.75,-0.8379 3.49111,-0.046 3.50079,-0.0336 3.81189,4.87768 0.28519,4.50228 0.16891,4.80515 -1.35821,3.53775 -1.43972,-1.19486 -1.84282,-1.14987 -2.92214,0.32619 C 362.78649,623.17973 344,623.37394 344,621.00548 c 0,-1.777 -4.63696,-2.08912 -5.2163,-0.35111 -0.21062,0.63188 -2.38562,1.19438 -4.83333,1.25 l -4.45037,0.10111 -0.87642,-14.78157 c -0.8009,-13.50788 -0.72292,-14.95118 0.90499,-16.75 1.71416,-1.89413 1.70761,-1.96843 -0.17358,-1.96843 -1.07525,0 -2.38249,-0.40759 -2.90499,-0.90575 -1.4445,-1.37723 -12.3485,-2.06749 -13.11324,-0.83012 -0.35866,0.58033 -0.58262,2.82865 -0.49769,4.99626 0.0849,2.16761 -0.14242,4.42142 -0.50524,5.00847 -0.36281,0.58705 -0.69885,6.1832 -0.74675,12.4359 -0.10136,13.23333 -0.11797,13.25721 -9.23009,13.27993 -4.65856,0.0116 -6.28798,-0.36248 -6.74294,-1.54807 -0.32996,-0.85986 -1.06044,-1.27877 -1.6233,-0.9309 -0.56286,0.34786 -0.76448,1.05138 -0.44804,1.56338 0.34227,0.55382 -4.05967,0.9309 -10.86706,0.9309 -10.0649,0 -11.49483,-0.21067 -11.878,-1.75 z M 300,619.50548 c 0,-0.55 -0.45,-1 -1,-1 -0.55,0 -1,0.45 -1,1 0,0.55 0.45,1 1,1 0.55,0 1,-0.45 1,-1 z m -18.64769,-11.76103 c 0.25869,-0.41856 -0.15069,-1.61034 -0.90973,-2.64838 -1.14632,-1.56769 -1.64151,-1.67038 -2.92366,-0.6063 -1.17546,0.97555 -1.27296,1.60715 -0.40881,2.64839 1.23808,1.49179 3.49553,1.81442 4.2422,0.60629 z M 353,603.43974 c 0,-1.99974 -2.06736,-4.93426 -3.47617,-4.93426 -2.34479,0 -2.82343,2.01147 -0.9668,4.06301 1.89559,2.09461 4.44297,2.59414 4.44297,0.87125 z m -52.59315,-2.78355 c 0.63557,-1.02837 -4.14298,-3.74791 -5.02888,-2.86201 -0.34378,0.34377 -0.35858,1.31945 -0.0329,2.16817 0.62824,1.63717 4.17804,2.12375 5.06177,0.69384 z M 302,591.17215 c 0,-0.73334 -0.2961,-1.62943 -0.65799,-1.99133 -0.90433,-0.90433 -3.45253,1.33682 -2.77198,2.43797 0.85211,1.37874 3.42997,1.04306 3.42997,-0.44664 z m 8.86888,-1.00868 c 1.40024,-1.68719 0.47417,-2.65799 -2.53555,-2.65799 -1.66666,0 -2.33333,0.57143 -2.33333,2 0,2.32505 3.13386,2.74856 4.86888,0.65799 z M 337.8,576.30548 c 1.76299,-1.76299 1.46671,-2.8 -0.8,-2.8 -1.33333,0 -2,0.66667 -2,2 0,2.26671 1.03701,2.56299 2.8,0.8 z M 307,574.11247 c 0,-1.7679 -2.1981,-2.62945 -4.90355,-1.92196 -3.77489,0.98716 -2.32116,3.31497 2.07022,3.31497 1.75513,0 2.83333,-0.5301 2.83333,-1.39301 z m -11.93809,-4.94415 c -1.15464,-3.03695 0.12865,-3.61513 2.58095,-1.16284 1.52293,1.52294 3.76913,1.83917 10.73426,1.51124 2.70004,-0.12712 4.58405,-0.94532 6.20562,-2.69502 1.28067,-1.38186 2.83159,-2.34478 3.44649,-2.13981 0.64603,0.21534 0.0315,1.54501 -1.45561,3.14965 -1.41549,1.52734 -2.57362,2.9788 -2.57362,3.22546 0,1.23314 4.0448,0.20108 6.36514,-1.6241 2.65222,-2.08623 3.5537,-4.92742 1.56343,-4.92742 -1.38448,0 -3.92857,-2.54409 -3.92857,-3.92857 0,-1.54565 -2.55079,-1.31762 -3.93636,0.35189 -1.32334,1.59453 -9.32158,1.4479 -17.06364,-0.31282 -2.475,-0.56287 -5.80724,-1.043 -7.40499,-1.06695 -2.77656,-0.0416 -2.83005,0.0393 -1.21002,1.82936 1.60195,1.77014 1.58301,1.90219 -0.34501,2.40638 -1.12199,0.29341 -2.03998,1.30308 -2.03998,2.24372 0,1.195 0.57925,1.55877 1.92268,1.20746 1.55508,-0.40666 1.88966,-0.0122 1.75,2.06294 -0.13218,1.96399 0.41364,2.72264 2.32732,3.23477 3.34016,0.89387 4.28601,-0.14571 3.06191,-3.36534 z m 4.39697,-2.72937 c -0.36253,-0.58659 -0.44468,-1.281 -0.18255,-1.54313 0.26212,-0.26213 0.74306,0.21781 1.06875,1.06653 0.67618,1.76211 0.0999,2.07206 -0.8862,0.4766 z m 29.87099,2.48377 C 328.6123,567.05276 324,567.06092 324,568.93172 c 0,1.48376 2.62848,2.4966 4.68686,1.806 0.65277,-0.21901 0.94212,-1.03596 0.64301,-1.81544 z m 11.12692,0.16526 c 2.96559,-1.2391 3.46439,-1.23027 3.96341,0.0701 0.62619,1.63182 5.0798,1.498 5.0798,-0.15264 0,-0.55 -0.78333,-2.10667 -1.74073,-3.45927 -1.36131,-1.92324 -2.00431,-2.19569 -2.95,-1.25 -1.48817,1.48817 -9.80927,1.61449 -9.80927,0.1489 0,-1.48975 -7.24925,-0.73234 -7.75603,0.81037 -0.22585,0.6875 0.25201,1.25 1.06191,1.25 0.8099,0 2.5349,0.88503 3.83334,1.96673 2.84846,2.37301 3.92174,2.45246 8.31757,0.61577 z m -27.70178,-8.8325 c -0.22642,-0.6875 -1.47989,-1.40572 -2.78549,-1.59604 -2.07253,-0.30212 -2.2057,-0.14347 -1.04923,1.25 1.5661,1.88703 4.42724,2.14522 3.83472,0.34604 z m 12.9983,-0.75 c 0.34419,-1.88606 -5.69072,-5.46259 -7.00303,-4.15028 -1.52919,1.52919 2.19012,6.30162 4.63739,5.95045 1.15054,-0.16509 2.21508,-0.97517 2.36564,-1.80017 z m 7.24669,1 c 0,-0.55 -0.675,-1 -1.5,-1 -0.825,0 -1.5,0.45 -1.5,1 0,0.55 0.675,1 1.5,1 0.825,0 1.5,-0.45 1.5,-1 z m 15.82585,-3.3826 c 0.27531,-1.38871 -0.0451,-1.47465 -2.06543,-0.5541 -1.55054,0.70647 -3.59883,0.7772 -5.82585,0.20118 -3.06983,-0.79402 -3.45033,-1.27121 -3.58301,-4.4935 -0.12478,-3.03041 0.23391,-3.70111 2.25,-4.20711 3.56579,-0.89496 2.90508,-2.73944 -0.85156,-2.37723 -2.15404,0.20769 -3.14915,0.78451 -2.95095,1.71051 0.236,1.10258 -0.23097,1.04987 -2.21482,-0.25 -3.1648,-2.07366 -5.19805,-2.09589 -5.97724,-0.0654 -1.08743,2.8338 -0.65622,3.41594 2.64301,3.56804 3.10937,0.14335 3.12845,0.16811 0.44094,0.57212 -5.48704,0.82488 -4.32185,5.22887 1.39239,5.26274 1.42084,0.008 2.92069,0.35281 3.33301,0.76531 0.41232,0.4125 2.62482,1.49863 4.91666,2.41361 3.45901,1.38096 4.50681,1.44561 6.167,0.38052 1.1,-0.7057 2.14663,-2.02273 2.32585,-2.92673 z M 300.5,554.97875 c 1.65,-0.71293 4.8,-1.67357 7,-2.13475 4.71098,-0.98756 4.8722,-2.81604 0.25484,-2.89042 -3.21786,-0.0518 -9.10731,1.57104 -10.40284,2.86656 -0.37693,0.37694 -2.41033,0.68534 -4.51867,0.68534 -2.67835,0 -3.83333,0.43598 -3.83333,1.44702 0,1.85403 7.23157,1.87054 11.5,0.0263 z m 24.93776,-8.47327 c -0.24258,-13.63965 -4.63261,-64 -5.57904,-64 -0.4049,0 -1.03984,2.025 -1.41099,4.5 -0.37115,2.475 -0.84872,4.5 -1.06127,4.5 -0.21255,0 -1.28646,-0.9 -2.38646,-2 -1.1,-1.1 -2.45,-2 -3,-2 -1.89423,0 -0.99252,2.03488 2.14331,4.83674 l 3.14331,2.80855 -1.17419,14.92735 c -0.6458,8.21005 -1.60914,20.05764 -2.14074,26.32798 -1.16057,13.6889 -0.86718,14.32202 6.43949,13.89605 L 325.5,550.00548 Z M 301,544.4703 c 0,-1.50763 -3.72222,-1.1311 -4.32411,0.43741 -0.29595,0.77123 -0.28493,1.6554 0.0245,1.96482 0.76849,0.76849 4.29962,-1.20438 4.29962,-2.40223 z m 42.72186,-3.08668 c 0.61702,-0.61702 0.88387,-1.74202 0.59301,-2.5 C 343.72792,537.35407 341,536.97558 341,538.42369 c 0,0.50502 -0.27314,1.63002 -0.60699,2.5 -0.70976,1.84961 1.61761,2.17117 3.32885,0.45993 z M 338,539.50548 c 0,-1.11111 -0.66667,-2 -1.5,-2 -2.72464,0 -1.77964,2.96432 1.25,3.92105 0.1375,0.0434 0.25,-0.82105 0.25,-1.92105 z m 12,-1 c 0,-0.55 -0.675,-1 -1.5,-1 -0.825,0 -1.5,0.45 -1.5,1 0,0.55 0.675,1 1.5,1 0.825,0 1.5,-0.45 1.5,-1 z m -58,-8.03138 c 0,-0.56727 -0.675,-1.29041 -1.5,-1.60699 -2.00272,-0.76852 -4.78662,0.3656 -4.00437,1.63131 0.81898,1.32513 5.50437,1.30442 5.50437,-0.0243 z m 7.5,-27.96862 c 0.33992,-0.55 -0.30852,-1 -1.44098,-1 -1.13246,0 -2.05902,0.45 -2.05902,1 0,0.55 0.64844,1 1.44098,1 0.79254,0 1.7191,-0.45 2.05902,-1 z m 13.27083,-7.8125 c 0.22111,-0.66333 -0.52375,-1.1875 -1.6875,-1.1875 -2.07732,0 -2.69993,1.05007 -1.39583,2.35417 0.92647,0.92647 2.59622,0.29467 3.08333,-1.16667 z M 295,473.50548 c 0,-0.55 -1.54844,-1 -3.44098,-1 -1.89254,0 -3.7191,0.45 -4.05902,1 -0.37325,0.60393 0.98962,1 3.44098,1 2.23246,0 4.05902,-0.45 4.05902,-1 z m -6,-3 c 0,-0.55 -0.45,-1 -1,-1 -0.55,0 -1,0.45 -1,1 0,0.55 0.45,1 1,1 0.55,0 1,-0.45 1,-1 z m 13.21667,-2.18333 c -1.52752,-1.52752 -2.65464,-0.40039 -1.80743,1.80742 0.50024,1.30358 0.93392,1.43275 1.82354,0.54313 0.88963,-0.88963 0.88579,-1.44865 -0.0161,-2.35055 z m 0.55416,-4.00417 C 302.15276,462.46376 300,462.15622 300,463.92215 c 0,0.87083 0.7125,1.58333 1.58333,1.58333 0.87084,0 1.40521,-0.53438 1.1875,-1.1875 z M 299,461.92215 c 0,-1.76593 -2.15276,-1.45839 -2.77083,0.39583 -0.21771,0.65312 0.31666,1.1875 1.1875,1.1875 0.87083,0 1.58333,-0.7125 1.58333,-1.58333 z m 15.08777,-21.69847 c 0.87327,-0.67001 1.40601,-1.75749 1.18386,-2.41663 -0.50916,-1.51069 -4.90192,0.29261 -5.68523,2.33388 -0.65607,1.70968 2.3098,1.7642 4.50137,0.0828 z m 1.50524,-4.7182 c 3.60886,0 5.09091,-2.18751 2.78091,-4.10464 -1.6585,-1.37643 -4.60611,-1.50564 -14.37392,-0.6301 -3.575,0.32045 -7.2875,0.61686 -8.25,0.65869 -2.18898,0.0951 -2.29107,2.67387 -0.15323,3.87027 0.87823,0.49148 3.75001,0.6867 6.38175,0.43382 2.63174,-0.25287 5.62569,0.0143 6.65323,0.59381 1.16347,0.65613 2.22663,0.69984 2.81825,0.11587 0.5225,-0.51575 2.38686,-0.93772 4.14301,-0.93772 z M 522.5,621.78674 c -2.75129,-0.65397 -3.15933,-1.22951 -3.92494,-5.53616 -0.5746,-3.2322 -0.3012,-4.0944 1.96397,-6.19369 1.79986,-1.66806 2.43845,-3.047 2.02066,-4.36333 -0.4321,-1.36143 0.11787,-2.40201 1.87956,-3.55632 3.35944,-2.20119 5.21734,-2.05296 5.87681,0.46886 0.3306,1.26421 1.00898,1.81653 1.70375,1.38714 0.63493,-0.39241 0.93235,-1.56269 0.66093,-2.60062 -0.27143,-1.03793 0.0269,-1.95377 0.66288,-2.0352 0.63601,-0.0814 1.83138,-0.21822 2.65638,-0.30398 0.825,-0.0857 3.1875,-0.5192 5.25,-0.96323 4.17014,-0.89776 10.75,-0.012 10.75,1.44716 0,0.5177 -1.6875,1.65166 -3.75,2.5199 -3.47826,1.46424 -3.61729,1.6768 -1.91858,2.9332 1.73299,1.28176 1.70611,1.37232 -0.5,1.68479 -1.28228,0.18162 -2.33142,0.85522 -2.33142,1.49689 0,0.64166 -0.32167,1.48833 -0.71482,1.88148 -0.39315,0.39315 -0.29648,1.49648 0.21482,2.45185 0.5113,0.95537 0.64822,2.01844 0.30428,2.36239 -0.34394,0.34394 0.19413,1.53087 1.19572,2.63761 2.05633,2.27222 1.79138,2.85457 -1.61469,3.54911 -3.66329,0.74698 -18.13608,1.26678 -20.38531,0.73215 z m 19.80282,-16.76756 c 0.10845,-0.54247 -0.59032,-1.13797 -1.55282,-1.32333 -1.0946,-0.2108 -1.75,0.27967 -1.75,1.30963 0,1.73979 2.9553,1.75204 3.30282,0.0137 z M 553.75,618.70414 c -3.19485,-0.27211 -3.75,-0.67216 -3.75,-2.70232 0,-1.32884 -0.98313,-3.07154 -2.22251,-3.93964 -1.73653,-1.21631 -1.86148,-1.5567 -0.57142,-1.5567 2.20025,0 5.03541,-2.92832 4.41088,-4.55583 -0.27394,-0.71387 0.15018,-1.83594 0.94249,-2.4935 0.79231,-0.65756 1.44056,-2.21036 1.44056,-3.45067 0,-1.24031 0.60837,-2.76001 1.35193,-3.37711 1.11265,-0.92342 1.55388,0.86147 2.49291,10.08464 0.62754,6.16366 0.80667,11.45502 0.39807,11.75859 -0.4086,0.30356 -2.43041,0.4082 -4.49291,0.23254 z m -51.59316,-21.44182 c -1.76103,-1.76103 -14.46853,-3.09392 -24.40684,-2.56003 -1.7875,0.096 -5.8375,-0.0189 -9,-0.25533 -6.31077,-0.47186 -6.36944,-0.56372 -5.13306,-8.03802 l 0.59494,-3.59653 4.10081,1.41285 c 4.51583,1.55583 8.68731,0.52856 8.68731,-2.13932 0,-2.12303 -1.86015,-2.94142 -3.53197,-1.55393 -1.14913,0.9537 -1.57085,0.86909 -2.06319,-0.41391 -0.4039,-1.05255 -1.81772,-1.61262 -4.07085,-1.61262 -2.0467,0 -3.20042,-0.4071 -2.83399,-1 0.33992,-0.55 1.71648,-1 3.05902,-1 1.34254,0 2.44098,-0.50888 2.44098,-1.13084 0,-0.73562 1.23301,-0.93075 3.52796,-0.55834 2.79922,0.45425 3.77843,0.17144 4.74054,-1.36915 0.66693,-1.06792 1.97779,-1.94167 2.91303,-1.94167 0.93524,0 2.00965,-0.50031 2.38757,-1.1118 0.96995,-1.56941 -1.64246,-3.00841 -4.3191,-2.3791 -1.54751,0.36384 -2.25,0.0732 -2.25,-0.93103 0,-2.17691 -2.14603,-3.08953 -3.4017,-1.4466 -0.60407,0.79036 -2.7858,2.41893 -4.8483,3.61905 l -3.75,2.18203 v -3.29961 c 0,-1.81478 0.30752,-3.60713 0.68338,-3.98298 0.37585,-0.37586 0.74006,-3.26336 0.80935,-6.41667 0.24769,-11.27244 1.72728,-21.23329 3.15401,-21.23329 1.63662,0 1.80174,-2.60479 0.22681,-3.57815 -0.73648,-0.45517 -0.9258,-2.63934 -0.54686,-6.30902 1.9152,-18.54694 3.86899,-39.10325 4.65055,-48.9295 0.93833,-11.79722 2.38708,-25.1763 5.56914,-51.43073 0.36289,-2.99417 1.20065,-5.08203 2.26849,-5.65352 2.40728,-1.28834 49.03226,-1.19696 52.44785,0.10279 2.93092,1.11531 3.30574,2.09357 4.13736,10.79813 0.49743,5.2065 1.58549,14.84064 5.19517,46 0.86016,7.425 1.77701,16.65 2.03746,20.5 0.26044,3.85 0.88301,9.925 1.38348,13.5 0.50047,3.575 1.62062,12.575 2.48921,20 0.8686,7.425 1.81554,14.2875 2.10432,15.25 0.38154,1.27166 -0.04,1.75 -1.54233,1.75 -2.64931,0 -2.70258,2.60063 -0.0674,3.28975 1.46648,0.38349 2,1.36401 2,3.67565 0,1.86575 -0.41185,2.8981 -1.00895,2.52907 -0.55492,-0.34296 -1.92861,-0.33167 -3.05265,0.0251 -1.6167,0.51312 -1.80183,0.94009 -0.88604,2.04353 0.83233,1.0029 1.67313,1.11902 2.99196,0.4132 2.60743,-1.39545 3.10676,-0.10222 3.7131,9.61666 l 0.52449,8.40706 h -2.64095 c -1.68084,-2e-5 -2.64095,0.5453 -2.64095,1.49998 0,0.98791 0.98833,1.5 2.89496,1.5 2.64722,0 2.92761,0.34232 3.27643,4 0.3132,3.28426 0.0692,4 -1.36358,4 -1.06583,0 -1.54063,-0.53268 -1.21987,-1.36858 0.30932,-0.80606 -0.30041,-1.58447 -1.48344,-1.89384 -1.10473,-0.2889 -2.182,-0.0105 -2.39393,0.61858 -0.27773,0.82444 -0.82473,0.78124 -1.95892,-0.15472 -1.05744,-0.87261 -1.78616,-0.95462 -2.22164,-0.25 -0.35642,0.57671 -2.82005,1.04856 -5.47472,1.04856 -2.65467,0 -6.11561,0.67223 -7.69098,1.49384 -1.57537,0.82161 -4.05006,1.49661 -5.4993,1.5 -1.70276,0.004 -3.21452,0.89064 -4.27305,2.50616 C 519.16084,596.71583 518,596.05588 518,590.96342 v -4.54207 l -7.75,0.29207 c -7.67393,0.28919 -7.75317,0.31969 -8.07266,3.1067 -0.17746,1.54804 0.38504,3.89471 1.25,5.21481 0.86496,1.3201 1.57266,2.64102 1.57266,2.93537 0,0.95648 -1.56953,0.56565 -2.84316,-0.70798 z M 495.25,591.7754 c 0.9625,-0.27675 1.75,-1.31114 1.75,-2.29865 0,-1.29924 -1.04882,-1.97267 -3.79487,-2.43661 -4.50556,-0.76121 -9.39886,0.7969 -8.64798,2.75367 0.65983,1.7195 5.47255,3.65261 7.44285,2.98955 0.825,-0.27763 2.2875,-0.73122 3.25,-1.00796 z m -10.49971,-9.01939 c 0.59085,-1.77454 -2.77104,-2.835 -3.78523,-1.19399 -0.4582,0.74138 -0.59583,1.73187 -0.30584,2.20108 0.74012,1.19755 3.59066,0.49583 4.09107,-1.00709 z M 518,581.12049 c 0,-3.19265 3.90344,-5.61501 9.04815,-5.61501 2.85176,0 3.98956,-0.38447 3.69924,-1.25 -0.27528,-0.82069 -2.71339,-1.28067 -7.09883,-1.33931 -3.67375,-0.0491 -7.81086,-0.69477 -9.19357,-1.43478 -2.17477,-1.1639 -2.73581,-1.12366 -4.15769,0.29822 -1.52491,1.5249 -1.44581,1.71891 1.09461,2.68477 1.50606,0.57261 3.21968,1.0411 3.80805,1.0411 0.58837,0 -0.16949,0.97479 -1.68413,2.16621 -2.17804,1.71324 -3.12312,1.93562 -4.51963,1.06349 -0.97116,-0.6065 -2.68614,-0.86204 -3.81108,-0.56786 -1.38362,0.36183 -2.46928,-0.144 -3.35577,-1.56349 C 500.014,573.697 499,573.98179 499,577.39849 c 0,2.86551 2.18539,4.72848 4.13405,3.52414 0.52446,-0.32413 1.49635,-0.14371 2.15975,0.40094 1.36994,1.1247 4.70753,1.84675 9.4562,2.04573 2.79627,0.11717 3.25,-0.19678 3.25,-2.24881 z m -28.1545,-2.06304 c 0.221,-1.14002 -0.13937,-1.62085 -1,-1.33427 -0.74002,0.24642 -1.50098,1.25007 -1.691,2.23033 -0.221,1.14002 0.13937,1.62085 1,1.33427 0.74002,-0.24642 1.50098,-1.25007 1.691,-2.23033 z m 56.91122,-0.32213 c 0.43121,-1.29363 -6.48424,-4.51627 -7.86295,-3.66418 -1.87008,1.15577 -0.79242,2.64812 1.58419,2.1938 1.81712,-0.34736 2.63982,0.0363 3.08486,1.43847 0.63266,1.99333 2.53376,2.01232 3.1939,0.0319 z M 486,577.00548 c 1.03599,-1.2483 0.90928,-1.5 -0.75511,-1.5 -1.1,0 -2.5602,0.675 -3.24489,1.5 -1.03599,1.2483 -0.90928,1.5 0.75511,1.5 1.1,0 2.5602,-0.675 3.24489,-1.5 z m 5.75,-3.74736 c 3.51748,-1.70496 2.6611,-2.75264 -2.25,-2.75264 -3.08333,0 -4.5,0.41975 -4.5,1.33333 0,2.63146 2.96361,3.25461 6.75,1.41931 z M 516,569.50548 c 0,-0.55 -0.45,-1 -1,-1 -0.55,0 -1,0.45 -1,1 0,0.55 0.45,1 1,1 0.55,0 1,-0.45 1,-1 z m -27,-0.83333 c 0,-1.30208 -1.18877,-2.16804 -2.15579,-1.57039 -1.03422,0.63919 -0.14245,2.40372 1.21481,2.40372 0.51754,0 0.94098,-0.375 0.94098,-0.83333 z m 60.95241,-2.72401 C 548.84368,564.6122 546,565.03022 546,566.52914 c 0,1.08817 2.1965,1.79343 3.77552,1.21225 0.94068,-0.34623 0.98712,-0.81699 0.17689,-1.79325 z M 524,564.0645 c 0,-2.05411 -2.07025,-3.06338 -3.04582,-1.48488 -0.45222,0.7317 -0.60035,1.68935 -0.32918,2.12811 0.84042,1.35984 3.375,0.87678 3.375,-0.64323 z m 6.41821,-0.16601 c 1.90041,-0.72925 2.12164,-3.39301 0.28179,-3.39301 -1.44095,0 -3.7,1.95378 -3.7,3.2 0,0.95395 1.25115,1.02459 3.41821,0.19301 z m -58.81404,-5.12218 c -1.01652,-1.01651 -1.85525,0.51389 -1.02122,1.86338 0.63003,1.01942 0.86558,1.02021 1.2043,0.004 0.2316,-0.69479 0.14921,-1.53513 -0.18308,-1.86742 z m 35.83073,-0.24608 c 3.35145,-1.27422 3.39594,-4.02475 0.0651,-4.02475 -1.375,0 -2.5,0.3876 -2.5,0.86133 0,0.47373 -1.125,0.64627 -2.5,0.38342 -2.02976,-0.38801 -2.5,-0.0798 -2.5,1.63867 0,2.38108 2.97352,2.83755 7.4349,1.14133 z M 524,553.44646 c 0,-0.51754 -0.675,-0.94098 -1.5,-0.94098 -1.54641,0 -1.9867,1.17996 -0.86052,2.30615 0.79893,0.79893 2.36052,-0.10419 2.36052,-1.36517 z m -10.0278,-3.9261 c 1.61805,-0.86596 1.78835,-1.98491 1.40778,-9.25 -0.23812,-4.54568 -0.90838,-12.08988 -1.48948,-16.76488 -0.5811,-4.675 -1.35668,-15.69482 -1.72352,-24.48848 -0.5715,-13.69966 -0.902,-16.03343 -2.30871,-16.30248 -1.37783,-0.26351 -1.71784,0.94026 -2.11519,7.48849 -0.69198,11.40383 -2.69822,32.74209 -3.83629,40.80247 -1.44426,10.22904 -1.14832,16.7501 0.82823,18.25 1.97208,1.4965 6.68343,1.6316 9.23718,0.26488 z M 519,541.50548 c 0,-0.55 -0.42344,-1 -0.94098,-1 -0.51754,0 -1.2191,0.45 -1.55902,1 -0.33992,0.55 0.0835,1 0.94098,1 0.85746,0 1.55902,-0.45 1.55902,-1 z m -34.4254,-6.12071 c 0.29889,-0.48361 -0.63771,-0.87929 -2.08132,-0.87929 -1.44362,0 -3.40693,-0.4186 -4.3629,-0.93022 -2.11801,-1.13353 -5.11776,0.36046 -3.62202,1.8039 2.00893,1.93868 8.86918,1.94251 10.06624,0.006 z m -2.70216,-4.79706 c 0.20485,-0.0452 -0.18775,-0.75723 -0.87244,-1.58223 -1.42694,-1.71936 -3.8242,-1.91301 -6,-0.48469 -1.33333,0.87528 -1.33333,1.09413 0,1.96964 1.21907,0.80048 3.53874,0.83332 6.87244,0.0973 z m 10.1367,-2.57122 c -0.67967,-0.81894 -1.64211,-1.23785 -2.13876,-0.9309 -1.27647,0.7889 -0.0558,2.41989 1.81108,2.41989 1.27119,0 1.33244,-0.27832 0.32768,-1.48899 z m 11.54471,-22.59814 c 0.36954,-0.59793 0.27983,-1.47919 -0.19934,-1.95836 -1.18268,-1.18268 -3.78562,0.53891 -2.92361,1.93369 0.87355,1.41342 2.25789,1.42436 3.12295,0.0247 z m -15.78302,-1.72537 c 0.22111,-0.66333 -0.52375,-1.1875 -1.6875,-1.1875 -2.07732,0 -2.69993,1.05007 -1.39583,2.35417 0.92647,0.92647 2.59622,0.29467 3.08333,-1.16667 z M 540,503.46359 c 0,-0.45535 -0.45746,-2.03112 -1.01657,-3.5017 -0.8473,-2.22857 -1.26564,-2.46709 -2.51233,-1.43242 -1.03373,0.85791 -1.18574,1.61493 -0.49211,2.4507 0.55201,0.66513 0.7375,1.47549 0.4122,1.80079 -0.3253,0.3253 -0.30699,1.05174 0.0407,1.61431 0.69858,1.13033 3.56811,0.38105 3.56811,-0.93168 z m -48,-0.95811 c 0,-0.55 -0.47656,-1 -1.05902,-1 -0.58246,0 -0.7809,0.45 -0.44098,1 0.33992,0.55 0.81648,1 1.05902,1 0.24254,0 0.44098,-0.45 0.44098,-1 z m -41,93 c 0,-0.55 1.0125,-0.99311 2.25,-0.98469 1.81944,0.0124 1.96296,0.20082 0.75,0.98469 -1.93876,1.25292 -3,1.25292 -3,0 z m 5,-3.5 c 0,-1.65115 1.76115,-1.93773 3.83385,-0.62385 1.06402,0.67448 0.9969,0.97482 -0.33179,1.48469 C 456.91477,593.85915 456,593.6343 456,592.00548 Z M 252.5,572.08517 c -1.1,-0.83385 -2.7875,-1.53039 -3.75,-1.54789 -3.18658,-0.0579 -1.81399,-1.75973 1.9062,-2.36344 4.02976,-0.65394 6.32466,0.1074 4.22859,1.40285 -1.04283,0.6445 -0.95028,0.96643 0.43009,1.49613 1.96032,0.75224 11.1345,-4.39083 10.82289,-6.06734 -0.10223,-0.55 -2.26942,-1 -4.81597,-1 -2.54655,0 -4.80454,-0.50644 -5.01776,-1.12543 -0.50799,-1.47477 3.94764,-2.28463 8.90857,-1.61923 2.99323,0.40148 4.1673,1.11371 4.86622,2.952 1.21878,3.20563 1.1746,7.29266 -0.0788,7.29266 -0.55,0 -1,-0.675 -1,-1.5 0,-1.88234 -1.39591,-1.93281 -2.9126,-0.10532 -0.63661,0.76708 -2.60421,1.62016 -4.37244,1.89574 -1.76823,0.27557 -4.11496,0.79451 -5.21496,1.1532 -1.17116,0.38189 -2.82884,0.0239 -4,-0.86393 z m 109.05887,-1.11149 c -1.897,-1.43483 -1.89132,-1.4682 0.25,-1.4682 1.281,0 2.19113,0.62305 2.19113,1.5 0,1.80955 -0.007,1.80946 -2.44113,-0.0318 z m 38.91009,-11.51842 c -0.95021,-1.53748 0.35135,-2.52947 1.63484,-1.24598 0.71818,0.71818 0.73543,1.27752 0.0524,1.69964 -0.55992,0.34605 -1.31919,0.1419 -1.68727,-0.45366 z M 201.5,550.50548 c 0.33992,-0.55 0.81648,-1 1.05902,-1 0.24254,0 0.44098,0.45 0.44098,1 0,0.55 -0.47656,1 -1.05902,1 -0.58246,0 -0.7809,-0.45 -0.44098,-1 z m -46.82343,-87.85032 c -0.92158,-2.30326 -3.41245,-7.89167 -5.53526,-12.41871 -2.12281,-4.52703 -4.82303,-10.36357 -6.00048,-12.97007 L 141,432.52728 v -133.5109 -133.5109 l -2.75,0.022 c -3.36067,0.0268 -11.25,3.48348 -11.25,4.92911 0,0.57689 -0.38018,1.04889 -0.84485,1.04889 C 125.40031,171.50548 110,156.9139 110,156.1987 c 0,-0.16039 1.4625,-0.12598 3.25,0.0765 1.98181,0.22446 5.39891,-0.58747 8.75701,-2.08073 6.36463,-2.83021 16.89295,-5.68899 20.95131,-5.68899 1.53824,0 3.2496,-0.5625 3.80304,-1.25 0.55344,-0.6875 1.3235,-7.1 1.71125,-14.25 0.38774,-7.15 1.33737,-17.275 2.11029,-22.5 0.77292,-5.225 1.40796,-9.99984 1.4112,-10.610752 0.003,-0.61092 -3.00112,-3.05544 -6.67637,-5.43227 -12.29232,-7.94961 -13.31542,-10.84613 -5.56773,-15.76287 9.77945,-6.20612 16.69112,-7.47537 25.25,-4.63685 5.45199,1.80812 14,7.89038 14,9.96156 0,3.03979 -8.79204,10.24784 -11.76338,9.64408 -0.69486,-0.1412 -1.53051,0.43939 -1.85699,1.29019 -0.32649,0.8508 -1.20463,1.54691 -1.95144,1.54691 -0.7468,0 -1.83949,0.9 -2.42819,2 -0.5887,1.1 -1.95453,2.000002 -3.03518,2.000002 -3.10443,0 -2.3001,2.86963 1.41944,5.06422 3.32273,1.96045 3.39719,2.15532 4.09494,10.71627 0.39088,4.79573 0.86039,9.95861 1.04337,11.47306 0.23243,1.9237 -0.24825,3.06445 -1.59494,3.78518 -2.47716,1.32574 -2.48115,2.96127 -0.007,2.96127 1.62593,0 2.02737,0.99882 2.61798,6.5139 0.38367,3.58265 1.0283,6.7183 1.4325,6.96811 0.40421,0.24982 4.06362,0.95763 8.13202,1.57292 4.0684,0.61529 8.70373,1.75464 10.30073,2.53189 1.597,0.77725 3.63004,1.41318 4.51786,1.41318 0.88783,0 3.23045,1.09825 5.20582,2.44055 2.68945,1.82752 3.87807,2.15406 4.73213,1.3 0.85407,-0.85407 1.14055,-0.82782 1.14055,0.10448 0,1.86638 -13.20213,14.44596 -13.92809,13.27132 -1.00862,-1.63198 -9.32534,-5.07046 -12.32191,-5.09439 L 172,165.50544 V 298.87832 432.2512 l -2.11574,4.87712 c -2.39696,5.52535 -7.80778,17.46959 -11.23268,24.79583 l -2.29941,4.9187 z m -0.84823,-199.1282 c -1.46941,-0.44363 -3.15691,-1.10651 -3.75,-1.47306 C 149.48525,261.68735 149,261.83101 149,262.37314 c 0,1.06817 2.32048,1.88262 5.5,1.93039 1.40702,0.0211 1.20789,-0.20911 -0.67166,-0.77657 z M 146.5,261.50548 c 0.33992,-0.55 -0.30852,-1 -1.44098,-1 -1.13246,0 -2.05902,0.45 -2.05902,1 0,0.55 0.64844,1 1.44098,1 0.79254,0 1.7191,-0.45 2.05902,-1 z m 12.24986,-151.58347 c -0.95295,-0.95295 -2.86349,0.5906 -2.1533,1.7397 0.42212,0.68301 0.98146,0.66575 1.69964,-0.0524 0.58876,-0.58875 0.79291,-1.34802 0.45366,-1.68726 z M 156,95.505478 c 0,-0.55 -0.42344,-1 -0.94098,-1 -0.51754,0 -1.2191,0.45 -1.55902,1 -0.33992,0.55 0.0835,1 0.94098,1 0.85746,0 1.55902,-0.45 1.55902,-1 z M 43.654987,401.67674 c -0.983201,-1.08643 -1.654988,-3.52192 -1.654988,-6 0,-3.78268 0.232893,-4.17126 2.5,-4.17126 3.337277,0 3.095903,-1.07704 -0.78852,-3.51848 -3.159234,-1.98564 -3.232223,-2.20526 -4.486514,-13.5 -0.701269,-6.31484 -1.051917,-13.3609 -0.779218,-15.65793 0.279493,-2.35424 0.05932,-4.3219 -0.504641,-4.50989 -0.550251,-0.18341 -1.407845,-4.60403 -1.905763,-9.82359 -0.497918,-5.21956 -1.600618,-15.56511 -2.450446,-22.99011 -1.952893,-17.06256 -1.952561,-17.1533 0.06136,-16.79384 0.905441,0.16161 1.831376,-0.23396 2.057633,-0.87906 0.226256,-0.64509 -0.627013,-1.32009 -1.896155,-1.5 -2.061804,-0.29227 -2.433811,-1.15813 -3.493393,-8.13101 -0.652224,-4.29215 -1.665072,-12.84215 -2.250771,-19 -0.585702,-6.15785 -1.732229,-17.04609 -2.54784,-24.19609 -0.815612,-7.15 -2.145568,-18.85 -2.955458,-26 -0.80989,-7.15 -2.157853,-18.4 -2.995474,-25 -0.837621,-6.6 -1.532364,-13.65536 -1.543873,-15.67857 -0.03753,-6.5976 0.746044,-6.83378 22.300502,-6.72175 10.548214,0.0548 20.303568,0.41089 21.678568,0.79126 2.34119,0.64765 2.54222,1.22894 3.16458,9.15032 0.36552,4.65231 1.12514,13.63374 1.68805,19.95874 0.56291,6.325 1.50502,18.25 2.09358,26.5 0.58856,8.25 1.59495,20.1101 2.23643,26.35578 0.89201,8.68488 0.89009,11.79811 -0.008,13.23643 -1.59015,2.54632 -1.47674,3.90779 0.32556,3.90779 1.21386,0 1.5,1.59664 1.5,8.36974 0,7.35012 -0.21318,8.35515 -1.75,8.25 -2.38383,-0.16311 -2.79848,1.80565 -0.45864,2.17766 1.45924,0.232 2.07266,1.61682 2.78961,6.29765 0.50547,3.30014 1.36903,5.9917 1.91903,5.98123 0.55,-0.0105 1.23645,-2.27085 1.52545,-5.02309 0.67074,-6.38777 2.37598,-8.35278 4.55225,-5.24573 0.85753,1.2243 1.96906,1.97266 2.47006,1.66303 0.501,-0.30964 1.77296,-0.10162 2.82657,0.46225 1.43384,0.76737 2.22696,0.65014 3.15335,-0.46608 0.97055,-1.16945 1.54694,-1.23466 2.67058,-0.30212 1.1207,0.9301 2.01778,0.84879 4.11732,-0.37316 2.29131,-1.33356 7.306364,-2.00711 14.414734,-1.93596 0.95167,0.01 1.99073,-0.40405 2.30902,-0.91905 0.94425,-1.52784 5.28903,-1.06548 6.25799,0.66595 0.49792,0.88972 0.53938,3.44692 0.0932,5.75 -0.44191,2.28123 -0.82009,6.39768 -0.84041,9.14768 -0.0203,2.75 -0.50702,8.375 -1.08157,12.5 -1.86987,13.42491 -4.01714,34.4018 -3.95786,38.66463 0.0319,2.29055 -0.63253,8.78231 -1.4764,14.42613 -0.84383,5.64383 -1.53428,12.18608 -1.53428,14.53832 0,5.42234 -1.5544,8.84686 -4.65732,10.26065 -1.60873,0.73298 -12.392704,1.11027 -31.734744,1.11027 -27.113397,0 -29.421364,-0.13636 -30.952949,-1.82874 z m 20.806119,-8.26465 c 1.51383,-1.4546 1.69028,-2.15523 0.77363,-3.07187 -0.91664,-0.91664 -1.66291,-0.75723 -3.27197,0.69895 -1.39062,1.2585 -3.395711,1.83415 -6.023628,1.72936 -4.769095,-0.19018 -5.17034,1.32819 -0.689139,2.60781 3.923189,1.12028 6.593647,0.55081 9.211107,-1.96425 z m 42.695014,-10.50498 c 0.36087,-0.22199 0.41556,-1.32352 0.12155,-2.44783 -0.84247,-3.2216 -7.346734,-5.98976 -13.489164,-5.74088 -2.90868,0.11786 -5.80002,-0.10188 -6.4252,-0.48831 -0.62518,-0.38642 -1.68836,-0.0379 -2.36262,0.77457 -1.67721,2.02091 0.84346,2.94126 5.85901,2.13925 2.72797,-0.43622 4.86806,-0.0518 7.67314,1.37831 2.139524,1.09079 4.582394,2.03044 5.428604,2.08811 0.84621,0.0577 -0.11211,0.62017 -2.12959,1.25 -5.727594,1.78808 -5.910184,2.98533 -0.33185,2.17591 2.75,-0.39903 5.29525,-0.90713 5.65612,-1.12913 z m -61.156121,-5.23496 c 0,-1.409 -1.126392,-2.0554 -2.597766,-1.49078 -2.086943,0.80084 -1.695154,2.32411 0.597766,2.32411 1.1,0 2,-0.375 2,-0.83333 z m 16.499997,-1.16667 c 0.33992,-0.55 -0.0835,-1 -0.94098,-1 -0.85746,0 -1.55902,0.45 -1.55902,1 0,0.55 0.42345,1 0.94099,1 0.51754,0 1.21909,-0.45 1.55901,-1 z m 18.55041,0 c 0.48775,0 0.6278,-0.675 0.31122,-1.5 -0.64872,-1.69055 -3.91802,-2.02678 -4.86163,-0.5 -0.93619,1.51479 0.50611,3.21163 2.18294,2.56817 0.81435,-0.31249 1.87971,-0.56817 2.36747,-0.56817 z M 55.999999,362.03686 c 0,-0.84739 -0.591709,-1.24155 -1.398849,-0.93182 -0.769368,0.29523 -1.695925,0.0561 -2.059017,-0.53139 -0.97988,-1.58548 -4.542134,-1.29415 -4.542134,0.37146 0,0.92718 1.334867,1.57927 3.75,1.8319 2.0625,0.21575 3.8625,0.46791 4,0.56037 0.1375,0.0924 0.25,-0.49278 0.25,-1.30052 z M 109,362.02786 c -0.60532,-1.18406 -2.71293,-1.56933 -4.60763,-0.84226 -2.63614,1.01158 -1.38685,2.44651 1.85763,2.13368 1.7875,-0.17235 3.025,-0.75348 2.75,-1.29142 z M 55.999999,348.28297 c 0,-1.23041 -2.759386,-2.0838 -4.534854,-1.40249 -1.35665,0.5206 -1.335153,0.89376 0.185146,3.21403 1.616706,2.46741 1.798962,2.51706 3.034854,0.82688 0.72317,-0.98899 1.314854,-2.17628 1.314854,-2.63842 z m 58.457291,-28.70839 c 0.31644,-0.512 0.0964,-1.22687 -0.48887,-1.58861 -1.47996,-0.91467 -4.23206,0.28391 -3.47279,1.51245 0.7816,1.26464 3.19842,1.31111 3.96166,0.0762 z m -71.532291,-16.3191 c 1.06,-1 1.416667,-1 1.783333,0 0.686231,1.87154 3.084033,1.50649 4.235374,-0.64482 1.388059,-2.59361 6.903098,-4.47721 8.712399,-2.97562 0.78234,0.64928 3.212831,0.91989 5.721961,0.63707 2.39905,-0.2704 5.06542,-0.098 5.92526,0.38324 0.94674,0.52983 1.81057,0.47486 2.19018,-0.13936 0.89577,-1.4494 -2.92203,-2.63159 -11.0142,-3.41058 -6.298337,-0.60631 -7.25465,-0.45789 -9.294473,1.4425 -1.842733,1.71676 -3.009433,1.99405 -6.15444,1.46271 -2.366702,-0.39986 -4.760442,-0.1848 -6.135751,0.55125 -2.174394,1.1637 -2.188125,1.25584 -0.383734,2.57525 2.300918,1.68247 2.743555,1.69434 4.414091,0.11836 z m 147.503971,98.95031 c -2.18771,-1.2243 -2.06643,-24.24419 0.13422,-25.47573 1.41758,-0.79332 1.41758,-0.99565 0,-2.17214 C 189.18171,373.4114 189,367.12083 189,320.44205 c 0,-29.05019 0.3823,-53.05481 0.84956,-53.34359 1.91779,-1.18526 17.46172,-1.57953 18.79064,-0.47663 1.04249,0.8652 1.3598,0.7823 1.3598,-0.35523 0,-1.01976 0.73762,-1.34277 2.35865,-1.03289 2.73825,0.52345 4.58191,-2.43007 2.10921,-3.37894 -2.00345,-0.76879 -21.50177,0.13771 -23.71786,1.10268 -1.65101,0.7189 -1.75,-1.61779 -1.75,-41.3098 0,-39.07367 0.12471,-42.13317 1.75,-42.93292 1.6366,-0.80531 34.14051,-0.65207 34.95739,0.16481 0.35941,0.35941 9.43064,36.62829 12.78713,51.12594 1.7958,7.75653 2.59814,11.05285 4.92528,20.2349 1.82919,7.21734 1.94151,8.60644 0.63037,7.79611 -1.16776,-0.72172 -2.94817,2.49974 -2.33171,4.21899 0.24651,0.6875 1.29487,1.25 2.32969,1.25 1.03482,0 2.36315,0.9 2.95185,2 1.36439,2.54939 2.62307,2.54939 3.28975,0 0.35342,-1.35148 1.36401,-2 3.11663,-2 3.36086,0 3.27154,-1.13433 -0.40638,-5.16114 l -3,-3.28458 v -38.16364 -38.16364 l 3.25,-0.48409 c 1.7875,-0.26625 9.90702,-0.25127 18.04338,0.0333 12.82358,0.4485 14.91992,0.75383 15.7437,2.29308 0.58478,1.09267 0.69872,15.23453 0.29622,36.76576 -0.74741,39.98179 0.0706,37.04836 -10.19436,36.55564 -4.62186,-0.22185 -5.43251,0.0159 -5.87929,1.72441 -0.55543,2.12396 -3.95204,2.17022 -3.50037,0.0477 0.36174,-1.7 -2.65227,-2.66979 -4.0265,-1.29556 -0.62303,0.62303 -2.81622,1.13278 -4.87376,1.13278 -2.05754,0 -4.04333,0.48921 -4.41287,1.08713 -1.50298,2.43187 1.74438,3.27338 12.2516,3.17484 5.9043,-0.0554 11.51264,0.31544 12.46297,0.82404 1.33421,0.71405 2.42299,0.18307 4.77895,-2.33064 3.45283,-3.68403 3.19038,-4.26566 3.49456,7.74463 0.0975,3.85 -0.12915,7.45 -0.50368,8 -0.37454,0.55 -0.2636,4.15 0.24653,8 0.52679,3.97574 0.6376,19.42107 0.25648,35.75 -0.59951,25.68615 -0.84549,28.75 -2.30818,28.75 -1.76291,0 -4.79788,5.66263 -3.64854,6.80743 0.38243,0.38091 1.56784,-0.38368 2.63424,-1.69909 1.06641,-1.31542 2.11643,-2.21416 2.33339,-1.99721 0.76325,0.76325 1.01677,51.76096 0.26108,52.51666 -0.42083,0.42083 -8.84039,0.90897 -18.71014,1.08476 -16.00468,0.28506 -17.8796,0.14924 -17.34032,-1.25612 0.40078,-1.04441 -0.0741,-1.75324 -1.40833,-2.10215 -1.28643,-0.33641 -2.22969,-1.66841 -2.61333,-3.69035 -0.33018,-1.74016 -1.23439,-5.86393 -2.00937,-9.16393 -2.39931,-10.21672 -4.7626,-20.69603 -6.31454,-28 -0.81805,-3.85 -1.85733,-8.575 -2.30952,-10.5 -1.08803,-4.63186 -3.65581,-16.36165 -5.41805,-24.75 -1.68033,-7.99849 -2.48818,-10.25 -3.67772,-10.25 -0.49036,0 -0.99775,18.08923 -1.14301,40.75 l -0.26122,40.74998 -3.25,-0.25381 c -3.97152,-0.31015 -4.39386,1.80368 -0.75,3.75381 4.87997,2.61168 3.0745,3.50137 -9,4.43496 -5.08831,0.39342 -6.52208,0.25781 -5.25,-0.49656 2.1422,-1.27036 2.24893,-3.27944 0.26183,-4.92858 -1.20519,-1.00022 -1.60583,-0.92843 -2.10699,0.37756 -0.34035,0.88694 -1.47067,1.61262 -2.51183,1.61262 -1.1362,0 -1.89301,0.69964 -1.89301,1.75 0,1.41144 -0.88433,1.75 -4.57103,1.75 -2.51407,0 -5.21407,-0.35986 -6,-0.79969 z m 81.37801,-4.44185 c 0.24782,-2.4924 -0.13768,-3.22316 -2,-3.79127 -1.26884,-0.38706 -3.09885,-1.39923 -4.0667,-2.24925 -1.50104,-1.31832 -2.12577,-1.34959 -4.25,-0.21274 -2.97717,1.59333 -3.23422,2.9948 -0.5493,2.9948 1.06754,0 2.21592,0.44485 2.55194,0.98855 0.35836,0.57984 -0.0724,0.72631 -1.04191,0.35428 -1.6907,-0.64878 -3.7232,1.40775 -2.82601,2.85942 0.27117,0.43876 2.23992,0.79775 4.375,0.79775 2.13508,0 4.17476,0.47375 4.53262,1.05279 1.16851,1.89068 2.96061,0.36132 3.27436,-2.79433 z m 1.99134,-8.42302 c 0.41939,-2.21325 -2.82914,-3.15442 -6.31425,-1.82938 -2.66845,1.01454 -2.70387,1.11571 -0.88209,2.519 2.44738,1.88517 6.78725,1.46928 7.19634,-0.68962 z m -11.80668,0.19089 c 1.20533,-0.76203 1.24803,-1.18666 0.22248,-2.21221 -1.37404,-1.37404 -4.24608,-0.21823 -4.98793,2.00732 -0.46823,1.40468 2.6553,1.53897 4.76545,0.20489 z m -8.26247,-5.6305 c -0.3323,-0.33229 -1.1948,-0.36781 -1.91667,-0.0789 -0.79773,0.31922 -0.56078,0.55618 0.60417,0.60416 1.05416,0.0434 1.64479,-0.19293 1.3125,-0.52522 z M 195,375.50548 c 0,-0.55 -0.45,-1 -1,-1 -0.55,0 -1,0.45 -1,1 0,0.55 0.45,1 1,1 0.55,0 1,-0.45 1,-1 z m 2,-6.61663 c 0,-0.76085 -0.6199,-1.38337 -1.37756,-1.38337 -1.58855,0 -3.87254,2.41657 -3.05586,3.23325 0.9959,0.9959 4.43342,-0.43843 4.43342,-1.84988 z m 12.98469,-2.69239 c -0.0313,-2.43478 -1.83482,-4.24085 -3.03569,-3.03998 -0.84571,0.84571 -0.84354,1.67754 0.009,3.26965 1.14701,2.1432 3.0558,1.99838 3.02716,-0.22967 z M 199,359.50548 c 0,-0.55 -0.47656,-1 -1.05902,-1 -0.58246,0 -0.7809,0.45 -0.44098,1 0.33992,0.55 0.81648,1 1.05902,1 0.24254,0 0.44098,-0.45 0.44098,-1 z m 65.5,-3 c 0,-0.73333 -0.5625,-1.52083 -1.25,-1.75 -0.74359,-0.24786 -1.25,0.46111 -1.25,1.75 0,1.28889 0.50641,1.99786 1.25,1.75 0.6875,-0.22917 1.25,-1.01667 1.25,-1.75 z m 7.25,-1.25 c -0.22917,-0.6875 -1.01667,-1.25 -1.75,-1.25 -0.73333,0 -1.52083,0.5625 -1.75,1.25 -0.24786,0.74359 0.46111,1.25 1.75,1.25 1.28889,0 1.99786,-0.50641 1.75,-1.25 z m -11.20888,-1.81653 c 0.92034,-1.48915 -0.14673,-2.29879 -2.06137,-1.56407 -0.88358,0.33906 -1.32643,1.06965 -0.98412,1.62354 0.81058,1.31154 2.21511,1.28411 3.04549,-0.0595 z m -37.81195,-2.53764 c -0.3323,-0.33229 -1.1948,-0.36781 -1.91667,-0.0789 -0.79773,0.31922 -0.56078,0.55618 0.60417,0.60416 1.05416,0.0434 1.64479,-0.19293 1.3125,-0.52522 z M 221,346.50548 c 0,-0.55 -0.45,-1 -1,-1 -0.55,0 -1,0.45 -1,1 0,0.55 0.45,1 1,1 0.55,0 1,-0.45 1,-1 z m -13.82874,-62.65499 c 2.65956,-2.40687 2.25667,-3.66751 -0.92126,-2.88266 -3.38316,0.83555 -4.6883,2.01945 -3.80385,3.45052 0.9554,1.54587 2.60907,1.34713 4.72511,-0.56786 z m 10.10291,-1.23029 c 2.41648,-2.46487 2.58038,-2.99054 1.27124,-4.07703 -1.24102,-1.02996 -2.02137,-0.75799 -4.47799,1.56067 -2.23611,2.11052 -2.70774,3.1301 -1.8988,4.10481 1.48256,1.78638 1.93496,1.64563 5.10555,-1.58845 z m 50.4763,-3.86472 c 0.24412,-0.73318 -0.44516,-1.25 -1.66714,-1.25 -1.22833,0 -2.08333,0.64569 -2.08333,1.57332 0,1.83788 3.12044,1.56887 3.75047,-0.32332 z M 204,278.50548 c 0,-0.55 -1.35,-1 -3,-1 -1.65,0 -3,0.45 -3,1 0,0.55 1.35,1 3,1 1.65,0 3,-0.45 3,-1 z m 22.19834,-5.32092 c 1.21942,-1.97307 -0.66153,-2.74322 -3.49074,-1.42928 -3.6733,1.70593 -3.64864,4.2032 0.0324,3.27932 1.50699,-0.37823 3.06326,-1.21075 3.45836,-1.85004 z m 20.80031,-3.92908 c 0.002,-2.01752 0.62268,-1.91543 -12.80515,-2.10471 l -10.3065,-0.14529 2.3961,2.06407 c 2.05867,1.77339 3.68596,2.05505 11.55516,2 8.03128,-0.0562 9.1592,-0.27955 9.16039,-1.81407 z m -18.20326,-5.92605 c 0.18934,-0.98315 -0.54575,-1.92733 -1.81388,-2.32982 -2.67685,-0.8496 -3.04973,-0.471 -2.31255,2.34796 0.67476,2.58031 3.62851,2.56732 4.12643,-0.0181 z m 47.29836,1.12588 c 2.62009,-1.40224 1.49067,-2.94983 -2.15277,-2.94983 -3.93186,0 -4.02594,2.94573 -0.12524,3.92105 0.17366,0.0434 1.19876,-0.39363 2.27801,-0.97122 z m -38.97333,-4.5121 c 2.46173,-1.27301 2.80018,-1.82848 1.8279,-3 C 237.592,255.30895 234,254.9912 234,256.50548 c 0,0.55 -1.125,1 -2.5,1 -4.16912,0 -2.95512,3.6626 1.29966,3.92105 0.71481,0.0434 2.65916,-0.62407 4.32076,-1.48332 z M 428.6498,402.74786 c -0.95075,-1.53834 -1.62631,-8.06272 -2.09598,-20.24238 -0.61189,-15.86775 -1.17565,-18.66381 -3.9111,-19.39777 -3.08875,-0.82875 -9.93432,-0.704 -11.36858,0.20718 -0.82165,0.52199 -1.44232,5.54549 -1.88231,15.23469 -0.486,10.70266 -1.04737,14.90539 -2.16215,16.18714 -1.15631,1.32952 -1.23763,2.05426 -0.35044,3.12325 0.6354,0.76561 0.87436,2.12405 0.53102,3.01876 -0.56579,1.47445 -5.66233,1.62675 -54.43546,1.62675 -29.59617,0 -54.52303,-0.27314 -55.39301,-0.60699 C 296.15975,401.3528 296,394.04717 296,329.55901 v -71.7325 l 2.54705,-1.16051 C 302.1717,255.01449 306,255.18887 306,257.00548 c 0,0.825 -0.48214,1.5 -1.07143,1.5 -1.38448,0 -3.92857,2.54409 -3.92857,3.92857 0,1.31304 0.21824,1.31915 3.4349,0.0962 1.41081,-0.53639 2.5651,-1.66139 2.5651,-2.5 0,-0.83861 0.675,-1.52475 1.5,-1.52475 0.825,0 1.5,-0.6199 1.5,-1.37756 0,-2.2829 2.52664,-3.7331 4.94526,-2.83839 1.21169,0.44823 2.0892,1.24269 1.95002,1.76546 -0.13918,0.52277 0.55427,1.10597 1.541,1.29599 1.15169,0.2218 1.63188,-0.13625 1.34112,-1 -0.24912,-0.74002 0.26156,-1.89945 1.13483,-2.5765 2.75636,-2.137 -0.63134,-3.42622 -7.41223,-2.8208 -3.3,0.29464 -8.025,0.70458 -10.5,0.91099 -2.475,0.2064 -5.0625,-0.0701 -5.75,-0.6144 -0.95772,-0.75827 -1.25,-9.24788 -1.25,-36.30822 0,-19.42519 0.35385,-35.53723 0.78634,-35.80452 0.43249,-0.26729 9.58174,-0.72678 20.33166,-1.02108 16.47213,-0.45096 19.88626,-0.29629 21.71366,0.98367 2.14809,1.50458 2.16804,1.8148 2.13654,33.21206 -0.0264,26.28299 -0.28244,32.02467 -1.5,33.63443 -1.92695,2.54765 -1.90881,4.94192 0.0318,4.19724 1.3218,-0.50722 1.5,5.77229 1.5,52.85783 0,62.00291 -1.51451,55.5038 12.93426,55.5038 12.9527,0 12.68696,0.42648 14.64281,-23.5 0.17984,-2.2 0.75702,-8.275 1.28264,-13.5 0.52562,-5.225 1.46558,-15.35 2.08881,-22.5 0.62323,-7.15 1.55711,-15.7 2.0753,-19 0.51819,-3.3 1.19081,-9.825 1.49472,-14.5 0.59533,-9.15793 1.86723,-22.1426 3.57533,-36.5 0.5889,-4.95 1.43991,-13.725 1.89113,-19.5 1.19936,-15.35008 3.10432,-29.35903 4.143,-30.46728 0.87272,-0.93117 61.6792,-1.05885 62.6066,-0.13146 0.40505,0.40506 2.72219,19.51476 5.71094,47.09874 0.77471,7.15 2.33452,21.55 3.46625,32 1.13172,10.45 2.50211,21.925 3.0453,25.5 0.54319,3.575 1.23794,10.325 1.54388,15 0.30595,4.675 0.99565,10.975 1.53268,14 0.53703,3.025 2.31854,18.55 3.95892,34.5 1.64037,15.95 3.45047,31.81898 4.02244,35.26441 0.73207,4.40986 0.72299,6.85662 -0.0307,8.26483 -0.80503,1.50421 -0.74983,2.12371 0.22253,2.49741 1.40938,0.54166 2.03458,4.65515 1.24984,8.22335 -0.49436,2.24791 -0.5147,2.25 -21.91676,2.25 -11.78206,0 -21.63263,-0.34093 -21.89016,-0.75762 z M 382.42516,388.38438 C 381.7771,387.3358 380,388.17756 380,389.53311 c 0,0.50028 0.67242,0.65157 1.49426,0.3362 0.82184,-0.31537 1.24074,-0.98359 0.9309,-1.48493 z M 380,363.50548 c 0,-0.55 -0.47656,-1 -1.05902,-1 -0.58246,0 -0.7809,0.45 -0.44098,1 0.33992,0.55 0.81648,1 1.05902,1 0.24254,0 0.44098,-0.45 0.44098,-1 z m 54.26443,0.40223 c 0.32877,-0.32877 0.36653,-1.20035 0.0839,-1.93685 C 433.70697,360.29948 431,361.22242 431,363.11247 c 0,1.39588 2.14199,1.91769 3.26443,0.79524 z M 459.5,361.50548 c -0.48382,-0.78284 -1.05907,-0.84093 -1.72574,-0.17426 -0.55,0.55 -0.67341,1.52841 -0.27426,2.17426 0.48382,0.78284 1.05907,0.84093 1.72574,0.17426 0.55,-0.55 0.67341,-1.52841 0.27426,-2.17426 z m 4.10417,-13.72917 c -1.01652,-1.01651 -1.85525,0.51389 -1.02122,1.86338 0.63003,1.01942 0.86558,1.02021 1.2043,0.004 0.2316,-0.69479 0.14921,-1.53513 -0.18308,-1.86742 z M 324,346.11247 c 0,-1.52902 -2.10129,-2.60699 -5.08179,-2.60699 -1.86056,0 -2.60423,1.98065 -1.25154,3.33333 1.28308,1.28308 6.33333,0.70389 6.33333,-0.72634 z m 112,-4.60699 c 0,-0.55 -0.42344,-1 -0.94098,-1 -0.51754,0 -1.2191,0.45 -1.55902,1 -0.33992,0.55 0.0835,1 0.94098,1 0.85746,0 1.55902,-0.45 1.55902,-1 z M 333.74986,321.92201 c -0.95295,-0.95296 -2.86349,0.5906 -2.1533,1.7397 0.42212,0.683 0.98146,0.66575 1.69964,-0.0524 0.58876,-0.58876 0.79291,-1.34803 0.45366,-1.68727 z m 88.71537,-0.76745 c 1.55319,-1.13572 1.73514,-2.13131 1.14221,-6.25 -0.38791,-2.69449 -1.11812,-11.64908 -1.6227,-19.89908 -1.42415,-23.2854 -3.15805,-45.84909 -3.64797,-47.47197 -0.76127,-2.52177 -2.19062,0.83098 -2.75546,6.46336 -3.78265,37.71919 -5.91961,66.15221 -5.0746,67.51946 0.90725,1.46797 9.82515,1.19819 11.95852,-0.36177 z m -41.00794,-24.57998 c 0.73955,-1.1966 -1.14162,-2.38223 -2.4736,-1.55902 -1.11836,0.69118 -0.38417,2.48992 1.01631,2.48992 0.48508,0 1.14086,-0.41891 1.45729,-0.9309 z m -50.00179,-42.9971 c 0.70168,-1.13534 -3.03725,-2.44853 -4.46286,-1.56745 -0.5639,0.34851 -0.76637,1.05255 -0.44993,1.56455 0.74403,1.20388 4.1693,1.2059 4.91279,0.003 z m -6.09387,-5.572 c 0.38957,-1.01522 -0.0505,-1.5 -1.36163,-1.5 -1.31114,0 -1.7512,0.48478 -1.36163,1.5 0.31659,0.825 0.92932,1.5 1.36163,1.5 0.43231,0 1.04504,-0.675 1.36163,-1.5 z m 101.13837,-57.5 c 1.07686,-1.74239 -0.51929,-3.22888 -2.07802,-1.93525 -0.76998,0.63902 -1.15336,1.56088 -0.85195,2.04856 0.72948,1.18032 2.16477,1.12481 2.92997,-0.11331 z m 51.50645,209.51955 c -0.63176,-1.91425 -0.87208,-3.92795 -0.53405,-4.47489 0.33803,-0.54694 0.58554,-49.34832 0.55002,-108.4475 -0.0409,-67.96124 0.28975,-107.67206 0.89951,-108.04891 0.53025,-0.32771 8.42949,-0.66681 17.55387,-0.75354 13.24639,-0.12592 16.86425,0.13079 17.95169,1.27379 1.2129,1.27487 2.27146,5.13061 7.11926,25.9315 1.61167,6.91532 7.83955,31.92229 10.58445,42.5 1.14179,4.4 2.45205,10.13628 2.9117,12.74729 0.45965,2.61102 1.11913,5.20586 1.46551,5.76632 C 538.41775,269.60847 539,264.36534 539,244.0824 v -22.30505 l 3.6462,0.11407 c 4.67507,0.14625 5.49109,-1.95971 1.15677,-2.98535 -1.81663,-0.42987 -3.64047,-0.69586 -4.05297,-0.59109 -0.4125,0.10478 -0.76571,-0.147 -0.78492,-0.5595 -0.4587,-9.85322 0.0203,-37.62674 0.65957,-38.24261 1.14302,-1.10118 34.94597,-1.75482 36.01307,-0.69638 0.4497,0.44606 0.82105,3.14606 0.82522,6 0.004,2.85395 -0.0983,44.45149 -0.22768,92.43899 -0.20704,76.78433 -0.41519,87.25 -1.73526,87.25 -0.825,0 -1.5,0.675 -1.5,1.5 0,0.825 0.62562,1.5 1.39026,1.5 1.12961,0 1.41214,3.28098 1.50693,17.5 0.0642,9.625 -0.22395,17.51582 -0.64026,17.53516 -0.41631,0.0193 -7.34542,0.15342 -15.39802,0.29797 -11.67154,0.20951 -14.54007,-4.4e-4 -14.14301,-1.03516 0.28094,-0.73212 -0.20249,-1.29797 -1.10891,-1.29797 -0.88385,0 -1.60699,0.675 -1.60699,1.5 0,1.68412 -2.72156,1.96455 -5,0.5152 -1.22752,-0.78084 -1.27634,-1.31511 -0.26874,-2.94111 1.03663,-1.67286 0.93251,-2.19618 -0.65869,-3.3107 -1.13659,-0.79611 -2.32314,-3.50408 -2.97672,-6.79358 -0.59773,-3.0084 -1.79069,-8.39481 -2.65103,-11.96981 -0.86033,-3.575 -1.96469,-8.525 -2.45414,-11 -0.48946,-2.475 -1.60169,-7.65 -2.47163,-11.5 -0.86994,-3.85 -2.27305,-10.15 -3.11803,-14 -0.84497,-3.85 -2.21652,-9.925 -3.04787,-13.5 -0.83136,-3.575 -1.75015,-7.9625 -2.04176,-9.75 -0.29446,-1.80497 -1.13208,-3.25 -1.88388,-3.25 -1.10721,0 -1.40592,6.4181 -1.64059,35.25 -0.15781,19.3875 0.11162,35.81965 0.59871,36.51589 1.55776,2.2266 0.0404,14.44942 -1.97689,15.9245 -1.30212,0.95213 -6.22161,1.30961 -18.02232,1.30961 H 479.1551 Z m 73.5474,-4.60668 c 0.36954,-0.59793 0.15236,-1.60666 -0.48262,-2.24164 -0.87268,-0.87268 -1.37235,-0.80204 -2.04689,0.28938 -0.95311,1.54218 -0.4725,3.03939 0.97566,3.03939 0.48508,0 1.18431,-0.48921 1.55385,-1.08713 z m 12.31503,-16.25488 c 1.32112,-1.59185 0.50464,-2.65799 -2.03555,-2.65799 -1.16666,0 -1.83333,0.72727 -1.83333,2 0,2.28027 2.2105,2.65622 3.86888,0.65799 z m 10.91342,-7.50349 c 0.28658,-0.86063 -0.19425,-1.221 -1.33427,-1 -0.98026,0.19002 -1.98391,0.95098 -2.23033,1.691 -0.28658,0.86063 0.19425,1.221 1.33427,1 0.98026,-0.19002 1.98391,-0.95098 2.23033,-1.691 z M 562,369.00548 c 0,-0.825 -0.675,-1.5 -1.5,-1.5 -1.56157,0 -1.98397,1.1827 -0.83333,2.33333 1.15063,1.15064 2.33333,0.72824 2.33333,-0.83333 z m -10.55279,-6.58541 c -0.32197,-0.52097 -1.01165,-0.68378 -1.53262,-0.3618 -0.52097,0.32197 -0.68378,1.01165 -0.3618,1.53262 0.32197,0.52097 1.01165,0.68378 1.53262,0.3618 0.52097,-0.32197 0.68378,-1.01165 0.3618,-1.53262 z m 17.36529,-2.85209 c 0.25,-0.75 -0.125,-1.125 -0.875,-0.875 -0.72187,0.24063 -1.50937,1.02812 -1.75,1.75 -0.25,0.75 0.125,1.125 0.875,0.875 0.72187,-0.24063 1.50937,-1.02813 1.75,-1.75 z m -66.37726,-4.95772 c 0.3043,-0.49236 -0.10473,-1.14771 -0.90896,-1.45632 -1.56267,-0.59966 -2.89724,0.64725 -1.83243,1.71206 0.90401,0.90401 2.09319,0.79308 2.74139,-0.25574 z M 559.5,344.50548 c 0.33992,-0.55 -0.11008,-1 -1,-1 -0.88992,0 -1.33992,0.45 -1,1 0.33992,0.55 0.78992,1 1,1 0.21008,0 0.66008,-0.45 1,-1 z m -53.5,-117.5 c 0,-0.825 -0.64844,-1.5 -1.44098,-1.5 -1.67065,0 -2.79841,1.42728 -1.86517,2.36052 1.19516,1.19516 3.30615,0.64571 3.30615,-0.86052 z m 47.50437,-8.50706 c 0.34231,-0.55389 -0.10054,-1.28448 -0.98412,-1.62354 -1.91464,-0.73472 -2.98171,0.0749 -2.06137,1.56407 0.83038,1.34358 2.23491,1.37101 3.04549,0.0595 z M 585.25,402.36107 c -0.94747,-0.95171 -1.25,-8.95191 -1.25,-33.05559 0,-27.6 0.19811,-31.8 1.5,-31.8 0.825,0 1.5,-0.68912 1.5,-1.53138 0,-0.84227 -0.675,-1.79041 -1.5,-2.10699 -1.31535,-0.50475 -1.49811,-9.94895 -1.48469,-76.71862 0.009,-43.80487 0.4005,-76.75172 0.92228,-77.57626 1.60038,-2.52905 67.34235,-1.12014 69.96184,1.49935 0.61964,0.61964 -3.10366,3.36257 -4.61805,3.4021 -0.72162,0.0188 -0.96241,-0.63585 -0.59041,-1.60526 1.03776,-2.70436 -10.09421,-1.38061 -12.79831,1.5219 -1.58044,1.69641 -2.38142,1.95441 -3.41205,1.09907 -1.02817,-0.85331 -1.85406,-0.61046 -3.49102,1.0265 -1.17932,1.17932 -1.92252,2.72199 -1.65154,3.42815 0.61527,1.60337 4.67767,2.78028 4.37776,1.26827 -0.33594,-1.69371 2.57615,-1.8309 4.68257,-0.2206 1.42267,1.08758 1.62495,1.78074 0.80721,2.76605 -1.77485,2.13856 0.17777,3.92725 3.89927,3.5719 3.1717,-0.30284 3.40209,-0.56923 3.50067,-4.04764 0.16899,-5.96231 3.1093,-8.2206 7.29765,-5.60493 1.48111,0.92496 3.08546,0.7912 7.62092,-0.63537 5.29172,-1.66445 5.81707,-1.67799 6.66008,-0.17161 0.50336,0.89945 1.98003,1.63537 3.28148,1.63537 4.31225,0 12.08127,11.97849 13.13275,20.24843 0.36724,2.88836 1.05278,5.74159 1.52342,6.34051 0.92505,1.17716 1.58207,52.53399 1.0511,82.16106 -0.23471,13.09654 -0.65829,18.25432 -1.5,18.26531 -0.8207,0.0107 -0.79199,0.25711 0.0956,0.82047 0.97939,0.62163 1.20732,6.24917 1,24.69013 -0.25767,22.91996 -0.34933,23.90698 -2.26852,24.42953 -3.88912,1.05893 -6.07328,2.84589 -4.91284,4.01944 0.77866,0.78746 1.88214,0.79719 3.88869,0.0343 1.54084,-0.58582 2.97345,-0.89321 3.18358,-0.68309 0.21013,0.21013 -0.10549,2.65538 -0.70137,5.43389 l -1.08343,5.05183 -5.18731,-0.43907 c -2.85303,-0.24149 -6.16727,-0.64955 -7.36499,-0.90681 -1.24113,-0.26657 -2.89216,0.24676 -3.83901,1.19361 -1.54845,1.54844 -1.54782,1.72486 0.009,2.59621 0.9188,0.51418 2.50479,0.71671 3.52443,0.45007 1.03653,-0.27106 2.08898,0.12781 2.38709,0.90469 0.70114,1.82712 3.03444,1.77102 4.59597,-0.11051 1.34263,-1.61777 5,-2.06712 5,-0.61431 0,1.06634 -1.85377,4.60063 -4.40652,8.40124 -2.05778,3.06368 -4.08261,3.12862 -4.08924,0.13115 -0.003,-1.1658 -0.58049,-1.79137 -1.47348,-1.595 -0.80809,0.1777 -3.61717,0.57747 -6.24241,0.88839 -5.83695,0.6913 -7.78472,2.53007 -5.43287,5.12884 1.33514,1.47531 2.54546,1.68555 6.66264,1.15737 3.39814,-0.43595 4.91696,-0.29688 4.67939,0.42844 -0.19346,0.59063 -1.66704,1.2262 -3.27463,1.41237 -1.60758,0.18616 -3.48538,0.80376 -4.17288,1.37244 -0.83177,0.68801 -1.25,0.69468 -1.25,0.0199 0,-1.61331 -4.83616,-2.3889 -7.15562,-1.14757 -1.5291,0.81835 -1.77073,1.3442 -0.87272,1.89921 3.21434,1.98657 -3.70953,2.53762 -35.47166,2.8231 -26.28315,0.23624 -34.28371,0.0206 -35.25,-0.95 z m 44.38837,-8.35559 c 0.35847,-0.93414 1.88325,-1.5 4.04194,-1.5 2.76725,0 3.39612,-0.35294 3.11815,-1.75 -0.1915,-0.9625 0.56301,-2.50407 1.67668,-3.42571 1.9166,-1.58611 1.92789,-1.71344 0.21109,-2.38146 -2.57033,-1.00013 -6.79501,1.11011 -6.05953,3.02675 0.48372,1.26056 -0.39099,1.53042 -4.96069,1.53042 -5.42699,0 -8.71129,-1.54159 -4.64123,-2.17851 1.12994,-0.17682 2.11712,-0.77149 2.19372,-1.32149 0.28688,-2.05983 -3.49174,-1.58495 -7.26678,0.91325 -4.03401,2.66959 -6.95172,3.33556 -6.95172,1.58675 0,-0.55 0.71713,-1 1.59362,-1 0.87649,0 1.82607,-0.88891 2.11019,-1.97536 0.55666,-2.12868 5.76693,-3.65781 9.30808,-2.73178 1.89169,0.49469 2.8235,-0.70616 1.23811,-1.59558 -2.65254,-1.48811 -6.25321,-1.55121 -7.67,-0.13442 -0.86056,0.86056 -2.02184,1.2821 -2.58061,0.93676 -1.41291,-0.87322 -14.87003,2.51388 -16.51222,4.15606 -0.73937,0.73938 -2.53445,1.34432 -3.98907,1.34432 -1.99024,0 -2.55504,0.43308 -2.28224,1.75 0.26335,1.27129 1.17245,1.67667 3.32333,1.48193 1.62844,-0.14744 4.40284,-0.0184 6.16531,0.28677 2.44323,0.42304 3.05616,0.94143 2.58006,2.18212 -0.46138,1.20236 -0.26321,1.40402 0.75894,0.7723 0.76085,-0.47024 3.19982,-1.16891 5.41993,-1.5526 2.22012,-0.3837 5.3951,-1.00824 7.05553,-1.38787 2.43064,-0.55573 3.56121,-0.1877 5.80152,1.88856 3.13433,2.90479 5.46451,3.30267 6.31789,1.07879 z M 604,387.50548 c -1.11348,-0.71959 -0.5185,-0.97332 2.30902,-0.98469 2.28797,-0.009 3.56222,0.38402 3.19098,0.98469 -0.78111,1.26386 -3.54432,1.26386 -5.5,0 z m 50.69721,5.20829 c 0.78205,-0.49715 0.87861,-1.2721 0.27847,-2.23468 -0.69566,-1.11579 -1.33614,-1.21345 -2.63769,-0.40217 -0.94543,0.5893 -1.89574,1.6018 -2.1118,2.25 -0.43673,1.31019 2.60463,1.57334 4.47102,0.38685 z m -63.32689,-7.51069 c -0.0888,-1.08674 1.57647,-2.1238 5.28176,-3.28925 5.61376,-1.76575 7.83401,-3.40835 4.60694,-3.40835 -1.02246,0 -2.42931,-0.5625 -3.12634,-1.25 -1.01538,-1.00151 -1.52435,-0.90211 -2.56024,0.5 -0.71111,0.9625 -1.88288,1.75 -2.60394,1.75 -3.19531,0 -6.30064,5.33453 -4.281,7.35417 1.11528,1.11527 2.82313,0.0607 2.68282,-1.65657 z M 662,386.00548 c 0,-0.83333 -0.88889,-1.5 -2,-1.5 -1.14476,0 -2,-0.66667 -2,-1.55902 0,-0.85746 0.35899,-1.33715 0.79775,-1.06598 1.4763,0.91241 3.14027,-0.85726 2.2145,-2.35518 -0.71505,-1.15697 -1.32077,-1.19969 -3.19721,-0.22552 -1.27327,0.66103 -4.11504,1.81052 -6.31504,2.55442 -4.98887,1.68691 -5.44246,4.26558 -0.684,3.88852 1.8238,-0.14451 4.0738,0.1793 5,0.7196 2.60081,1.51716 6.184,1.25245 6.184,-0.45684 z m -15.52715,-3.45607 c 0.82387,-1.33305 -3.24503,-3.69183 -7.72285,-4.477 -2.99921,-0.52591 -3.75,-0.34817 -3.75,0.88776 0,1.02698 0.94216,1.54531 2.80887,1.54531 1.54488,0 3.68238,0.66069 4.75,1.4682 2.30214,1.74125 3.11936,1.86146 3.91398,0.57573 z M 652.5,378.51918 c 0,-1.78023 -3.29848,-2.61522 -4.71909,-1.19461 -0.55365,0.55365 -0.68839,1.52159 -0.29942,2.15096 0.99405,1.6084 5.01851,0.84148 5.01851,-0.95635 z m -65.59455,-2.86787 c -1.4779,-0.50795 -2.22865,0.5222 -1.38059,1.8944 0.53766,0.86994 0.94308,0.82251 1.56809,-0.18347 0.49513,-0.79692 0.41776,-1.5029 -0.1875,-1.71093 z M 665,375.56881 c 0,-0.51515 1.45881,-1.07765 3.24181,-1.25 4.59968,-0.44461 5.22608,-3.81336 0.70907,-3.81336 -2.7273,0 -3.01328,-0.21989 -1.95088,-1.5 1.05604,-1.27246 0.8211,-1.5 -1.54881,-1.5 -1.53654,0 -3.64181,-0.76753 -4.67839,-1.70561 -1.54427,-1.39755 -2.23581,-1.48633 -3.82874,-0.49153 -1.68312,1.05113 -1.94406,0.9445 -1.94406,-0.79439 0,-2.44055 -1.26102,-2.53877 -4.59003,-0.35752 -1.95201,1.279 -3.2395,1.43765 -5.71482,0.7042 C 640.8508,363.72149 638,364.18114 638,365.9401 c 0,0.84451 0.9469,1.13734 2.75,0.85043 l 2.75,-0.43759 -2.2238,1.82626 c -1.55732,1.27892 -1.95479,2.25653 -1.32621,3.26195 0.71728,1.1473 1.19473,1.18908 2.37688,0.20799 0.81361,-0.67524 2.76041,-1.61194 4.32621,-2.08155 1.56581,-0.46961 3.68677,-1.19394 4.71325,-1.60962 1.62493,-0.65802 1.72649,-0.49448 0.78519,1.26437 -1.35806,2.53756 -0.52803,3.41571 2.50824,2.65366 1.88552,-0.47324 2.23794,-0.26754 1.74456,1.0182 -0.48523,1.26448 0.0377,1.61125 2.42967,1.61125 1.67639,0 3.32609,0.45 3.66601,1 0.78059,1.26303 2.5,1.3066 2.5,0.0634 z m 14,-1.56336 c 0,-1.61555 -4.48326,-2.14512 -5.4138,-0.63948 -0.79033,1.27878 0.44892,2.13948 3.08047,2.13948 1.4074,0 2.33333,-0.59524 2.33333,-1.5 z m -6.45888,-8.56653 c 0.92034,-1.48915 -0.14673,-2.29879 -2.06137,-1.56407 -0.88358,0.33906 -1.32643,1.06965 -0.98412,1.62354 0.81058,1.31154 2.21511,1.28411 3.04549,-0.0595 z M 664,364.50545 c 0,-0.55 -0.19844,-1 -0.44098,-1 -0.24254,0 -0.7191,0.45 -1.05902,1 -0.33992,0.55 -0.14148,1 0.44098,1 0.58246,0 1.05902,-0.45 1.05902,-1 z m -24.41661,-4.55743 c 2.15414,-1.95658 3.46661,-3.75641 2.91661,-3.99962 -0.65616,-0.29016 -0.89896,-22.62205 -0.70614,-64.94902 0.26114,-57.32391 0.11658,-64.8804 -1.29819,-67.86182 -2.70445,-5.6992 -9.80133,-7.58856 -11.52042,-3.06701 -0.59849,1.57414 -0.98117,28.90663 -0.99056,70.75 -0.008,37.50169 -0.3819,67.60716 -0.82995,66.90103 -0.8569,-1.35047 -4.15474,-0.64335 -4.15474,0.89086 0,0.92509 1.32726,1.23638 4.12258,0.96689 0.89241,-0.086 1.86278,0.76215 2.15638,1.88485 0.87954,3.36338 5.71563,2.65181 10.30443,-1.51616 z M 682,355.00545 c 0,-0.825 -0.45,-1.5 -1,-1.5 -0.55,0 -1,0.675 -1,1.5 0,0.825 0.45,1.5 1,1.5 0.55,0 1,-0.675 1,-1.5 z m -25,-2.5 c 0,-0.55 -0.45,-1 -1,-1 -0.55,0 -1,0.45 -1,1 0,0.55 0.45,1 1,1 0.55,0 1,-0.45 1,-1 z m -31.63837,-19.5 c 0.34388,-0.89614 0.008,-1.5 -0.834,-1.5 -1.6447,0 -2.75941,1.43489 -1.83378,2.36052 1.0538,1.0538 2.05741,0.73007 2.66778,-0.86052 z m -8.36163,-1.5 c 0,-0.55 -0.675,-1 -1.5,-1 -0.825,0 -1.5,0.45 -1.5,1 0,0.55 0.675,1 1.5,1 0.825,0 1.5,-0.45 1.5,-1 z m 46.02254,-4.5204 c 0.92402,-0.83622 3.74367,-1.63294 6.2659,-1.77049 4.62303,-0.25212 7.6853,-1.60776 4.12823,-1.82753 -1.05417,-0.0651 -2.28762,-0.054 -2.741,0.0248 -0.45338,0.0788 -0.53932,-0.31796 -0.19098,-0.88158 0.34834,-0.56363 1.49266,-1.02478 2.54294,-1.02478 1.33214,0 1.72566,-0.47933 1.30134,-1.58509 -0.87693,-2.28526 -7.20023,-0.93736 -10.11944,2.15711 -1.42236,1.50776 -3.41215,2.42798 -5.25,2.42798 -2.29286,0 -2.95953,0.45052 -2.95953,2 0,2.47725 4.47729,2.78302 7.02254,0.4796 z M 647.5,325.50545 c -0.33992,-0.55 -1.26648,-1 -2.05902,-1 -0.79254,0 -1.44098,0.45 -1.44098,1 0,0.55 0.92656,1 2.05902,1 1.13246,0 1.7809,-0.45 1.44098,-1 z m 30.31033,-13.26539 c 0.44338,-2.28551 -3.63104,-4.3654 -4.43704,-2.265 -0.69527,1.81183 1.41839,4.76628 3.0268,4.23083 0.60495,-0.2014 1.23956,-1.08602 1.41024,-1.96583 z M 661.75,309.25545 c -0.22917,-0.6875 -1.01667,-1.25 -1.75,-1.25 -0.73333,0 -1.52083,0.5625 -1.75,1.25 -0.24786,0.74359 0.46111,1.25 1.75,1.25 1.28889,0 1.99786,-0.50641 1.75,-1.25 z M 679,305.06447 c 0,-0.24254 -0.45,-0.7191 -1,-1.05902 -0.55,-0.33992 -1,-0.14148 -1,0.44098 0,0.58246 0.45,1.05902 1,1.05902 0.55,0 1,-0.19844 1,-0.44098 z m 5.04238,-77.91664 c -1.3352,-1.3352 -3.57419,0.68812 -2.56622,2.31905 0.51879,0.83942 1.08103,0.82103 2.15525,-0.0705 1.0083,-0.83681 1.13415,-1.52538 0.41097,-2.24856 z M 595,207.50545 c 0,-0.55 -0.47656,-1 -1.05902,-1 -0.58246,0 -0.7809,0.45 -0.44098,1 0.33992,0.55 0.81648,1 1.05902,1 0.24254,0 0.44098,-0.45 0.44098,-1 z m 41.29668,-12.53142 c 1.65362,-2.27201 1.6624,-2.46858 0.11025,-2.46858 -1.59767,0 -4.30649,2.63135 -4.37513,4.25 -0.0698,1.64692 2.57314,0.54296 4.26488,-1.78142 z m 15.16061,-4.39948 c 0.31644,-0.512 0.0964,-1.22687 -0.48887,-1.58861 -1.47996,-0.91467 -4.23206,0.28391 -3.47279,1.51245 0.7816,1.26464 3.19842,1.31111 3.96166,0.0762 z M 98.638626,294.80821 c -0.65551,-0.6472 -11.97594,-1.71194 -16.4468,-1.5469 l -5.30818,0.19596 0.67718,-7.22591 c 0.733,-7.82147 0.96642,-8.35673 3.87235,-8.87967 1.79173,-0.32244 1.73822,-0.55826 -0.73126,-3.22287 -1.46545,-1.58124 -2.46194,-3.20265 -2.21443,-3.60312 0.24751,-0.40048 0.9233,-7.88137 1.50176,-16.6242 1.31763,-19.91463 3.73358,-54.18497 4.61022,-65.39605 0.36555,-4.675 1.11032,-9.0625 1.65503,-9.75 0.73664,-0.92973 6.43629,-1.25 22.245504,-1.25 15.79465,0 21.51656,0.32113 22.27281,1.25 1.07768,1.32368 0.19312,19.90519 -1.70186,35.75 -1.86506,15.59462 -3.3925,30.37595 -4.48693,43.42088 -0.59621,7.10648 -1.53731,13.07008 -2.09132,13.25243 -0.60699,0.19979 -0.86738,3.60926 -0.65521,8.57912 0.28743,6.73272 0.11428,8.01798 -0.9427,6.99757 -1.77069,-1.70944 -3.89479,-1.5731 -3.89479,0.25 0,0.825 0.45,1.5 1,1.5 0.55,0 1,0.76101 1,1.69113 0,1.50825 -0.14657,1.49068 -1.35539,-0.16248 -0.95564,-1.30691 -1.91418,-1.62127 -3.25,-1.06584 -2.27409,0.94556 -8.26012,0.98981 -10.51557,0.0777 -2.14831,-0.86875 -3.21049,1.93948 -1.32535,3.50401 0.78915,0.65494 2.5624,0.97524 3.94056,0.71179 1.37816,-0.26345 2.50575,-0.0914 2.50575,0.38232 0,0.47373 -0.5625,0.92663 -1.25,1.00644 -2.13832,0.24823 -8.901124,0.36524 -9.111374,0.15765 z m 15.211514,-19.87987 c 0.19257,-0.1594 0.0535,-0.76977 -0.30902,-1.35636 -0.83448,-1.35021 -20.465104,-1.40815 -22.541124,-0.0665 -1.66169,1.07387 3.0947,1.58942 10.665524,1.15604 2.29103,-0.13114 4.44598,0.21536 4.78877,0.77 0.52066,0.84245 6.24034,0.45333 7.39585,-0.50315 z M 220.02369,162.90237 c 8.07604,-8.93147 14.59686,-21.8442 16.55409,-32.78092 l 0.69508,-3.88401 -4.88643,0.72759 c -2.68754,0.40018 -5.33643,1.08352 -5.88643,1.51853 -0.55,0.43502 -2.56023,1.12513 -4.46718,1.53357 -1.90694,0.40845 -4.15694,1.10256 -5,1.54248 -0.84305,0.43991 -2.32032,1.04357 -3.28282,1.34146 -1.42829,0.44204 -1.75,1.71979 -1.75,6.95055 0,6.70891 -1.48251,9.45012 -4.48727,8.29709 -1.1543,-0.44295 -1.52027,-2.30576 -1.54453,-7.86188 -0.0215,-4.9233 -0.5233,-7.92908 -1.54948,-9.28138 -1.42084,-1.87239 -1.33906,-2.0356 1.2818,-2.55794 1.53972,-0.30686 4.07741,-0.21418 5.63931,0.20596 1.86248,0.501 4.18556,0.22545 6.75,-0.80064 3.80561,-1.5227 3.91017,-1.6962 3.91017,-6.48818 0,-4.1683 -0.33949,-5.04924 -2.21295,-5.74227 l -2.21295,-0.81863 2.25915,-1.20906 c 1.24254,-0.66498 3.70087,-1.0696 5.46296,-0.89915 l 3.20379,0.30991 -0.33213,6.32914 c -0.31906,6.07997 -0.25275,6.28666 1.68426,5.25 1.10901,-0.59353 2.80885,-1.07914 3.77741,-1.07914 0.96856,0 2.98148,-1.16927 4.47316,-2.59839 l 2.71213,-2.59839 3.09258,2.28645 c 3.57736,2.64485 3.75603,3.51801 1.29851,6.34588 -0.98674,1.13545 -2.63304,4.76445 -3.65843,8.06445 -2.89169,9.30624 -7.8926,17.61029 -13.87546,23.04034 -9.1901,8.34094 -12.9683,10.74004 -7.64834,4.85658 z m 182.83704,2.35308 c -0.0766,-0.6875 -0.0264,-10.31626 0.11146,-21.39724 0.25013,-20.09933 0.2454,-20.14893 -1.99286,-20.85932 -3.14758,-0.99901 -0.63306,-2.4581 4.27067,-2.47813 4.22084,-0.0172 4.39121,0.48987 2.67169,7.95201 -0.56618,2.45702 -0.77161,5.49452 -0.4565,6.75 0.51191,2.03963 1.18313,2.28607 6.30386,2.31448 7.83691,0.0435 10.55,2.36725 8.62396,7.38641 -1.01307,2.64004 -3.78219,1.79165 -7.89301,-2.41821 -2.14824,-2.2 -4.75855,-4 -5.80069,-4 -1.7688,0 -1.87991,0.8146 -1.67087,12.25 0.12317,6.7375 0.16715,13.0375 0.0978,14 -0.14447,2.00347 -4.04698,2.46093 -4.26546,0.5 z M 468,165.92412 c 0,-0.53551 0.60992,-1.86129 1.35538,-2.94616 3.56863,-5.1935 9.22617,-30.22429 7.27288,-32.17758 -0.68002,-0.68003 -6.15978,0.87238 -10.37826,2.94015 -2.08022,1.01966 -2.25,1.76925 -2.25,9.9339 0,8.6478 -0.0496,8.83102 -2.39301,8.83102 -3.15428,0 -3.75847,-1.92828 -2.56916,-8.19947 1.30528,-6.88272 0.19227,-7.88034 -4.976,-4.46014 -2.21042,1.46278 -4.68776,2.65961 -5.50521,2.65961 -1.77641,0 -3.55662,-3.02385 -3.55662,-6.04125 0,-1.68469 0.39308,-2.0064 1.75,-1.43222 2.47579,1.04762 4.43395,0.84128 8.62178,-0.90851 4.2985,-1.79603 5.08786,-3.35441 4.17198,-8.23646 -0.44439,-2.36878 -1.33859,-3.77665 -2.60988,-4.1091 -2.68992,-0.70343 -2.41322,-2.13972 0.63552,-3.29885 2.66313,-1.01251 7.04951,-0.39924 7.98635,1.1166 0.29527,0.47776 -0.0158,2.71328 -0.69128,4.96782 -1.48622,4.96055 -0.24512,6.26416 4.52929,4.7574 7.39223,-2.33292 7.72012,-2.71986 7.4004,-8.73331 -0.243,-4.57039 -0.68361,-5.72599 -2.53333,-6.64421 l -2.23917,-1.11154 2.31595,-1.23946 c 1.27378,-0.6817 3.85641,-1.09264 5.73917,-0.91318 l 3.42322,0.32627 -0.33891,6.75 c -0.37614,7.49151 -0.27494,7.5796 5.87936,5.11714 4.82856,-1.93201 8.95955,-0.72795 8.95955,2.61142 0,1.72825 -0.68895,2.03862 -4.75,2.13992 -2.6125,0.0652 -5.30741,0.0466 -5.98869,-0.0412 -0.68127,-0.0878 -2.14377,0.32467 -3.25,0.91671 -1.58874,0.85027 -2.01131,2.09082 -2.01131,5.90474 0,11.54463 -4.18041,22.97612 -10.72015,29.31469 C 469.47593,165.46725 468,166.45964 468,165.92412 Z m -141.43315,-4.66867 c 5.53113,-5.90152 8.14177,-9.85183 11.96342,-18.10253 3.36541,-7.26569 3.5006,-8.64747 0.84609,-8.64747 -2.03314,0 -11.01353,3.84907 -15.59447,6.68393 l -3.71811,2.3009 -2.03189,-2.18098 C 316.91435,140.10977 316,138.31318 316,137.31689 c 0,-2.11702 0.38969,-2.20953 2.84589,-0.67561 1.43046,0.89334 3.1889,0.64899 8.23643,-1.1445 9.9251,-3.5266 12.16123,-4.42751 15.74388,-6.34306 3.06181,-1.63707 3.51886,-1.6522 5.75,-0.1903 2.61787,1.71529 3.05184,3.03585 1.34444,4.09108 -0.59364,0.36689 -2.88264,4.44419 -5.08667,9.06066 -2.70348,5.66262 -5.84994,10.28978 -9.67064,14.22152 -8.35863,8.60159 -16.31487,13.15402 -8.59648,4.91877 z m 170.21729,1.97977 c 2.26355,-2.40943 9.46285,-17.35763 10.58583,-21.97977 0.83845,-3.45101 -0.80017,-3.60875 -5.94638,-0.57242 -3.5836,2.11438 -3.73038,2.12334 -5.05716,0.30887 -1.32371,-1.81029 -1.89517,-5.48645 -0.85286,-5.48645 0.28246,0 1.29496,0.4857 2.25,1.07932 1.30645,0.81206 2.97351,0.61898 6.73224,-0.77975 4.81093,-1.79027 5.02883,-2.03978 5.88789,-6.74191 0.73912,-4.04566 0.61391,-5.08624 -0.73027,-6.06913 -2.20555,-1.61274 -1.03952,-2.48853 3.31324,-2.48853 5.28904,0 6.10956,1.33877 3.74709,6.11376 -1.14692,2.31811 -1.61161,4.37903 -1.09987,4.87796 1.07831,1.05135 7.38611,-1.46238 7.38611,-2.94345 0,-1.47775 2.2711,-1.30174 4.53165,0.35121 1.6027,1.17193 1.72929,1.78168 0.77855,3.75 -0.62444,1.29279 -1.86518,6.24994 -2.7572,11.01589 -1.72171,9.19893 -3.56934,13.92782 -6.87047,17.58463 -2.98971,3.31183 -4.10606,2.80003 -5.77815,-2.64901 l -1.50331,-4.899 2.26406,0.86079 c 2.35711,0.89617 2.63254,0.68247 5.09196,-3.95092 1.4386,-2.71023 3.70749,-15.98061 2.87466,-16.81345 -0.30051,-0.3005 -2.18922,0.10888 -4.19714,0.90975 -3.22181,1.28503 -3.92159,2.23059 -5.95573,8.04754 -3.02903,8.66195 -6.5852,14.59617 -11.43725,19.08545 -4.34227,4.01763 -6.65249,5.00244 -3.25749,1.38862 z M 278.78349,162.75545 C 277.24341,160.98987 275,157.06373 275,156.13406 c 0,-0.27658 1.50733,-0.25826 3.34963,0.0407 3.03276,0.49215 4.00239,-0.0568 10.25,-5.80253 9.25588,-8.5124 13.70742,-13.34327 18.0767,-19.61705 2.01106,-2.88764 3.82068,-5.08605 4.02138,-4.88535 0.91339,0.91339 -8.1662,16.69621 -12.43883,21.62213 -7.60354,8.76612 -15.80596,17.01349 -16.92074,17.01349 -0.56549,0 -1.71508,-0.7875 -2.55465,-1.75 z m 79.28909,-0.88486 C 356.93266,160.42142 356,158.38059 356,157.33541 c 0,-1.61542 0.31215,-1.73327 2.08209,-0.78603 1.72501,0.9232 2.76391,0.64179 6.05778,-1.64086 4.67406,-3.23913 18.34743,-17.46972 22.96872,-23.90475 1.77544,-2.47225 3.40085,-4.32221 3.61203,-4.11103 0.63166,0.63166 -5.91915,12.78382 -9.42421,17.48249 -6.00007,8.04332 -17.65662,20.13022 -19.4135,20.13022 -0.95576,0 -2.67041,-1.18569 -3.81033,-2.63486 z m -101.79943,0.50801 c -0.75789,-0.75789 -0.93862,-4.03206 -0.55197,-10 0.6765,-10.44199 -0.0306,-10.99456 -6.19434,-4.84026 -4.75262,4.74539 -7.23528,5.36706 -2.8638,0.71711 C 253.79555,140.66861 261,129.26148 261,125.55511 c 0,-2.45627 0.25186,-2.4879 4.0736,-0.5116 l 2.97428,1.53806 -4.34039,5.32828 -4.34039,5.32829 0.37264,10.84169 c 0.48406,14.08302 -0.32894,17.43642 -3.46659,14.29877 z M 432.58062,145.94321 C 431.71128,145.07387 431,144.03474 431,143.63402 c 0,-1.3403 2.38059,-3.12857 4.16482,-3.12857 2.36405,0 4.23144,3.45144 2.56417,4.73929 -2.70184,2.08698 -3.63347,2.21337 -5.14837,0.69847 z M 362.25,131.57857 c -2.3375,-2.11467 -4.25,-4.12122 -4.25,-4.45899 0,-1.14692 10.59316,-0.62097 11.8,0.58587 1.74023,1.74023 1.47129,4.87357 -0.55,6.40795 -2.34143,1.7774 -2.16125,1.84265 -7,-2.53483 z m -80.76093,-0.55394 c -2.19399,-1.91444 -4.43907,-3.52107 -4.98907,-3.57028 -2.36491,-0.21159 3.33429,-1.81472 6.67857,-1.87861 3.32084,-0.0635 6.82143,1.87565 6.82143,3.77863 0,1.07752 -3.01905,5.15108 -3.81763,5.15108 -0.38733,0 -2.49931,-1.56637 -4.6933,-3.48082 z m 138.5208,-4.19935 -2.49012,-2.46919 3.99012,0.32468 c 3.25651,0.26498 4.04888,0.73836 4.30968,2.57468 0.43265,3.04635 -2.5245,2.82739 -5.80968,-0.43017 z m -98.3432,0.0135 C 321.3,126.47212 321,125.40952 321,124.47746 c 0,-1.25748 0.6297,-1.57429 2.4409,-1.22806 2.30701,0.44101 9.03489,-1.61492 14.5591,-4.44904 3.62119,-1.8578 9.23493,-1.71135 8.82332,0.23018 -0.19772,0.93267 -4.20782,2.86689 -10.32332,4.97931 -9.90939,3.42292 -13.54583,4.11644 -14.83333,2.82893 z m 205.98832,-4.16207 c -2.22114,-2.45433 -2.08542,-3.17419 0.59501,-3.15595 3.19408,0.0217 5.14502,1.5129 4.4271,3.38377 -0.81576,2.12583 -2.98097,2.02761 -5.02211,-0.22782 z M 426.25,120.56189 c -2.94596,-2.45762 -2.8382,-3.05644 0.55,-3.05644 3.2385,0 5.27714,1.63541 4.51487,3.62186 -0.71654,1.86727 -2.37006,1.68268 -5.06487,-0.56542 z m 107.84159,-3.66193 -2.4084,-2.39451 h 2.9584 c 3.37988,0 5.44804,1.60286 4.67328,3.62186 -0.74655,1.94546 -2.4299,1.54991 -5.22328,-1.22735 z m -292.5816,-4.38408 c -3.30556,-3.45026 -2.90716,-4.47621 1.37317,-3.53609 2.98667,0.65598 4.86166,3.51151 3.62237,5.51671 -0.98507,1.59388 -1.92981,1.21931 -4.99554,-1.98062 z M 249,107.00545 l -3.39233,-3.5 h 3.08538 c 3.95041,0 7.66919,2.89244 6.76115,5.25876 -0.99523,2.59352 -2.68107,2.13413 -6.4542,-1.75876 z"
     id="path1181"
     inkscape:connector-curvature="0" />
</svg>
